<svg width="14" height="14" viewBox="0 0 14 14" fill="none" xmlns="http://www.w3.org/2000/svg">
    <g clip-path="url(#clip0_1060_8882)">
        <path d="M9.91763 0.527832L8.5942 1.85127L12.1489 5.40596L13.4723 4.08252C14.1559 3.39893 14.1559 2.2915 13.4723 1.60791L12.395 0.527832C11.7114 -0.155762 10.604 -0.155762 9.92037 0.527832H9.91763ZM7.97623 2.46924L1.6024 8.8458C1.31802 9.13018 1.11021 9.48291 0.995367 9.86846L0.0273984 13.1579C-0.040961 13.3903 0.0219296 13.6392 0.191461 13.8087C0.360992 13.9782 0.60982 14.0411 0.839508 13.9755L4.12896 13.0075C4.51451 12.8927 4.86724 12.6849 5.15162 12.4005L11.5309 6.02393L7.97623 2.46924Z" fill="#F89934"/>
    </g>
    <defs>
        <clipPath id="clip0_1060_8882">
            <rect width="14" height="14" fill="white"/>
        </clipPath>
    </defs>
</svg>