<svg width="20" height="20" viewBox="0 0 20 20" fill="none" xmlns="http://www.w3.org/2000/svg">
    <path d="M6.60005 6.28333C5.93339 6 5.65006 5.175 6.05006 4.575C6.85839 3.375 8.20839 2.5 9.99172 2.5C11.9501 2.5 13.2917 3.39167 13.9751 4.50833C14.5584 5.46667 14.9001 7.25833 14.0001 8.59167C13.0001 10.0667 12.0417 10.5167 11.5251 11.4667C11.4001 11.6917 11.3251 11.875 11.2751 12.25C11.2001 12.8583 10.7001 13.3333 10.0834 13.3333C9.35839 13.3333 8.76672 12.7083 8.85005 11.9833C8.90005 11.5583 9.00005 11.1167 9.23339 10.7C9.87505 9.54167 11.1084 8.85833 11.8251 7.83333C12.5834 6.75833 12.1584 4.75 10.0084 4.75C9.03339 4.75 8.40005 5.25833 8.00839 5.86667C7.71672 6.34167 7.10839 6.49167 6.60005 6.28333ZM11.6667 16.6667C11.6667 17.5833 10.9167 18.3333 10.0001 18.3333C9.08339 18.3333 8.33339 17.5833 8.33339 16.6667C8.33339 15.75 9.08339 15 10.0001 15C10.9167 15 11.6667 15.75 11.6667 16.6667Z" fill="#F89934"/>
</svg>