<svg width="152" height="102" viewBox="0 0 152 102" fill="none" xmlns="http://www.w3.org/2000/svg">
    <g clip-path="url(#clip0_664_7048)">
        <path d="M27.624 59.2697C27.8302 60.8127 27.7304 62.3812 27.3304 63.8857C26.9304 65.3902 26.238 66.8011 25.2927 68.038C24.3474 69.2749 23.1677 70.3134 21.821 71.0944C20.6187 71.7917 19.3042 72.2714 17.9381 72.513C17.6662 72.561 17.4737 72.8115 17.5102 73.0852L17.5903 73.6842C17.6268 73.9579 17.8793 74.1457 18.1553 74.1553C18.7701 74.1767 19.3678 74.388 19.863 74.7664C20.4916 75.2469 20.9036 75.9573 21.0084 76.7415C21.1132 77.5257 20.9021 78.3194 20.4217 78.948C20.0432 79.4433 19.522 79.8041 18.9344 79.9861C18.6706 80.0678 18.4763 80.3153 18.5128 80.589L18.679 81.8326C18.7156 82.1064 18.9681 82.2942 19.2441 82.3038C19.8589 82.3252 20.4565 82.5365 20.9517 82.9149C21.5804 83.3954 21.9924 84.1058 22.0971 84.89C22.2019 85.6742 21.9909 86.4679 21.5105 87.0965C21.132 87.5917 20.6107 87.9525 20.0231 88.1346C19.7594 88.2163 19.565 88.4638 19.6016 88.7375L19.7641 89.9537C19.8021 90.2379 20.0718 90.4278 20.3585 90.425C20.5861 90.4228 20.8138 90.4466 21.0372 90.4964C21.4327 90.5846 21.8062 90.7525 22.1347 90.9899C22.4633 91.2272 22.74 91.529 22.948 91.8768C23.156 92.2246 23.291 92.6112 23.3447 93.0129C23.3983 93.4146 23.3696 93.8231 23.2602 94.2133C23.1508 94.6035 22.963 94.9674 22.7083 95.2826C22.4536 95.5979 22.1373 95.858 21.7788 96.0469C21.5764 96.1536 21.3629 96.2364 21.1427 96.294C20.8653 96.3666 20.6549 96.6207 20.6929 96.9049L20.8439 98.0351C20.8805 98.3088 21.132 98.501 21.4057 98.4645L149.759 81.3147C150.033 81.2781 150.225 81.0266 150.188 80.7529L150.037 79.6227C149.999 79.3385 149.73 79.1485 149.443 79.1513C149.215 79.1536 148.987 79.1297 148.764 79.0799C148.369 78.9917 147.995 78.8238 147.667 78.5865C147.338 78.3492 147.061 78.0474 146.853 77.6996C146.645 77.3517 146.51 76.9652 146.457 76.5634C146.403 76.1617 146.432 75.7533 146.541 75.363C146.65 74.9728 146.838 74.609 147.093 74.2937C147.348 73.9784 147.664 73.7184 148.022 73.5294C148.225 73.4227 148.438 73.3399 148.659 73.2823C148.936 73.2098 149.146 72.9557 149.108 72.6715L148.946 71.4553C148.909 71.1816 148.657 70.9938 148.381 70.9842C147.766 70.9628 147.168 70.7515 146.673 70.373C146.045 69.8926 145.633 69.1822 145.528 68.398C145.423 67.6137 145.634 66.8201 146.114 66.1914C146.493 65.6962 147.014 65.3354 147.602 65.1534C147.866 65.0717 148.06 64.8242 148.023 64.5504L147.857 63.3068C147.821 63.0331 147.568 62.8453 147.292 62.8357C146.677 62.8143 146.08 62.603 145.584 62.2246C144.956 61.7441 144.544 61.0337 144.439 60.2495C144.334 59.4653 144.545 58.6716 145.026 58.043C145.404 57.5477 145.925 57.187 146.513 57.0049C146.777 56.9232 146.971 56.6757 146.935 56.402L146.855 55.803C146.818 55.5293 146.566 55.3382 146.291 55.3632C143.339 55.6317 140.385 54.7837 138.02 52.9761C135.522 51.0669 133.885 48.2437 133.468 45.1274C133.052 42.0111 133.891 38.857 135.8 36.3591C137.607 33.9938 140.235 32.4002 143.154 31.8841C143.426 31.836 143.619 31.5856 143.582 31.3119L143.502 30.7129C143.466 30.4392 143.213 30.2514 142.937 30.2418C142.322 30.2204 141.725 30.0091 141.229 29.6306C140.601 29.1502 140.189 28.4397 140.084 27.6555C139.979 26.8713 140.19 26.0776 140.671 25.449C141.049 24.9538 141.57 24.593 142.158 24.411C142.422 24.3292 142.616 24.0817 142.58 23.808L142.413 22.5644C142.377 22.2907 142.124 22.1029 141.848 22.0933C141.234 22.0719 140.636 21.8606 140.141 21.4821C139.512 21.0017 139.1 20.2912 138.995 19.507C138.89 18.7228 139.102 17.9291 139.582 17.3005C139.96 16.8053 140.482 16.4445 141.069 16.2625C141.333 16.1807 141.527 15.9332 141.491 15.6595L141.325 14.4159C141.288 14.1422 141.036 13.9544 140.76 13.9448C140.145 13.9234 139.547 13.7121 139.052 13.3336C138.423 12.8532 138.011 12.1428 137.907 11.3586C137.802 10.5744 138.013 9.78065 138.493 9.15205C138.872 8.65683 139.393 8.29604 139.981 8.11399C140.244 8.03227 140.439 7.78476 140.402 7.51105L140.247 6.35338C140.211 6.07967 139.959 5.88744 139.686 5.92401L11.3153 23.0761C11.0415 23.1126 10.8493 23.3642 10.8859 23.6379L11.0406 24.7956C11.0771 25.0693 11.3296 25.2571 11.6056 25.2667C12.2204 25.2881 12.8181 25.4994 13.3133 25.8778C13.9419 26.3583 14.3539 27.0687 14.4587 27.8529C14.5635 28.6371 14.3524 29.4308 13.872 30.0594C13.4935 30.5546 12.9723 30.9154 12.3847 31.0975C12.1209 31.1792 11.9266 31.4267 11.9631 31.7004L12.1293 32.944C12.1659 33.2177 12.4184 33.4055 12.6944 33.4152C13.3091 33.4365 13.9068 33.6478 14.402 34.0263C15.0306 34.5067 15.4427 35.2172 15.5474 36.0014C15.6522 36.7856 15.4412 37.5793 14.9608 38.2079C14.5823 38.7031 14.061 39.0639 13.4734 39.246C13.2097 39.3277 13.0153 39.5752 13.0519 39.8489L13.2181 41.0925C13.2546 41.3662 13.5071 41.554 13.7831 41.5636C14.3979 41.585 14.9956 41.7963 15.4908 42.1748C16.1194 42.6552 16.5314 43.3657 16.6362 44.1499C16.741 44.9341 16.5299 45.7278 16.0495 46.3564C15.671 46.8516 15.1498 47.2124 14.5622 47.3945C14.2984 47.4762 14.1041 47.7237 14.1406 47.9974L14.2206 48.5956C14.2572 48.8696 14.5091 49.0608 14.7844 49.0354C16.1671 48.9078 17.5627 49.0239 18.9075 49.3799C20.4139 49.7787 21.8268 50.4705 23.0655 51.4157C24.3042 52.361 25.3444 53.5412 26.1266 54.8889C26.9088 56.2365 27.4177 57.7252 27.624 59.2697Z" fill="#DC7201"/>
        <path d="M28.3699 58.3039C28.7863 61.4202 27.9477 64.5743 26.0386 67.0722C24.2309 69.4375 21.6036 71.0311 18.6841 71.5472C18.4121 71.5953 18.2196 71.8458 18.2562 72.1195L18.3362 72.7184C18.3728 72.9921 18.6253 73.1799 18.9012 73.1895C19.516 73.2109 20.1137 73.4222 20.6089 73.8007C21.2375 74.2811 21.6495 74.9916 21.7543 75.7758C21.8591 76.56 21.6481 77.3537 21.1676 77.9823C20.7892 78.4775 20.2679 78.8383 19.6803 79.0204C19.4165 79.1021 19.2222 79.3496 19.2588 79.6233L19.4249 80.8669C19.4615 81.1406 19.714 81.3284 19.99 81.338C20.6048 81.3594 21.2025 81.5707 21.6977 81.9492C22.3263 82.4296 22.7383 83.1401 22.8431 83.9243C22.9478 84.7085 22.7368 85.5022 22.2564 86.1308C21.8779 86.626 21.3567 86.9868 20.7691 87.1689C20.5053 87.2506 20.311 87.4981 20.3475 87.7718L20.5137 89.0154C20.5503 89.2891 20.8028 89.4769 21.0787 89.4865C21.6935 89.5079 22.2912 89.7192 22.7864 90.0977C23.415 90.5781 23.827 91.2886 23.9318 92.0728C24.0366 92.857 23.8256 93.6507 23.3451 94.2793C22.9667 94.7745 22.4454 95.1353 21.8578 95.3173C21.594 95.3991 21.3997 95.6466 21.4363 95.9203L21.591 97.078C21.6275 97.3517 21.8791 97.5439 22.1528 97.5073L150.506 80.3576C150.78 80.321 150.972 80.0695 150.935 79.7957L150.781 78.6381C150.744 78.3644 150.491 78.1766 150.216 78.167C149.601 78.1456 149.003 77.9343 148.508 77.5558C147.879 77.0754 147.467 76.3649 147.362 75.5807C147.258 74.7965 147.469 74.0028 147.949 73.3742C148.328 72.879 148.849 72.5182 149.436 72.3361C149.7 72.2544 149.895 72.0069 149.858 71.7332L149.692 70.4896C149.655 70.2159 149.403 70.0281 149.127 70.0185C148.512 69.9971 147.914 69.7858 147.419 69.4073C146.79 68.9269 146.378 68.2164 146.274 67.4322C146.169 66.648 146.38 65.8543 146.86 65.2257C147.239 64.7305 147.76 64.3697 148.348 64.1876C148.611 64.1059 148.806 63.8584 148.769 63.5847L148.603 62.3411C148.566 62.0674 148.314 61.8796 148.038 61.87C147.423 61.8486 146.826 61.6373 146.33 61.2588C145.702 60.7784 145.29 60.0679 145.185 59.2837C145.08 58.4995 145.291 57.7058 145.772 57.0772C146.15 56.582 146.671 56.2212 147.259 56.0392C147.523 55.9574 147.717 55.7099 147.68 55.4362L147.6 54.8373C147.564 54.5636 147.312 54.3724 147.037 54.3974C144.085 54.6659 141.131 53.818 138.766 52.0103C136.268 50.1012 134.631 47.2779 134.214 44.1616C133.798 41.0454 134.637 37.8913 136.546 35.3933C138.353 33.0281 140.981 31.4345 143.9 30.9183C144.172 30.8703 144.365 30.6198 144.328 30.3461L144.248 29.7472C144.211 29.4734 143.959 29.2856 143.683 29.276C143.068 29.2546 142.471 29.0433 141.975 28.6649C141.347 28.1844 140.935 27.474 140.83 26.6898C140.725 25.9056 140.936 25.1119 141.417 24.4833C141.795 23.9881 142.316 23.6273 142.904 23.4452C143.168 23.3635 143.362 23.116 143.325 22.8423L143.159 21.5987C143.123 21.3249 142.87 21.1372 142.594 21.1275C141.979 21.1061 141.382 20.8949 140.887 20.5164C140.258 20.036 139.846 19.3255 139.741 18.5413C139.636 17.7571 139.847 16.9634 140.328 16.3348C140.706 15.8396 141.228 15.4788 141.815 15.2967C142.079 15.215 142.273 14.9675 142.237 14.6938L142.074 13.4776C142.036 13.1934 141.767 13.0035 141.48 13.0063C141.252 13.0085 141.024 12.9847 140.801 12.9349C140.406 12.8467 140.032 12.6788 139.704 12.4415C139.375 12.2041 139.098 11.9023 138.89 11.5545C138.682 11.2067 138.547 10.8201 138.494 10.4184C138.44 10.0167 138.469 9.60825 138.578 9.21801C138.688 8.82777 138.875 8.46392 139.13 8.14866C139.385 7.8334 139.701 7.57335 140.06 7.38437C140.262 7.27767 140.475 7.1949 140.696 7.13729C140.973 7.06474 141.183 6.81064 141.145 6.52643L140.994 5.39623C140.958 5.12252 140.706 4.93028 140.433 4.96685L12.0623 22.1189C11.7886 22.1555 11.5964 22.407 11.6329 22.6807L11.784 23.8109C11.8219 24.0951 12.0916 24.2851 12.3783 24.2823C12.606 24.28 12.8337 24.3039 13.0571 24.3537C13.4526 24.4419 13.8261 24.6098 14.1546 24.8471C14.4831 25.0845 14.7599 25.3862 14.9679 25.7341C15.1759 26.0819 15.3109 26.4685 15.3646 26.8702C15.4182 27.2719 15.3895 27.6803 15.2801 28.0706C15.1707 28.4608 14.9829 28.8247 14.7282 29.1399C14.4735 29.4552 14.1572 29.7152 13.7987 29.9042C13.5963 30.0109 13.3828 30.0937 13.1625 30.1513C12.8851 30.2238 12.6748 30.4779 12.7127 30.7621L12.8752 31.9783C12.9118 32.252 13.1643 32.4398 13.4403 32.4494C14.0551 32.4708 14.6528 32.6821 15.148 33.0606C15.7766 33.541 16.1886 34.2515 16.2934 35.0357C16.3981 35.8199 16.1871 36.6136 15.7067 37.2422C15.3282 37.7374 14.807 38.0982 14.2194 38.2802C13.9556 38.3619 13.7612 38.6094 13.7978 38.8832L13.964 40.1268C14.0006 40.4005 14.2531 40.5883 14.529 40.5979C15.1438 40.6193 15.7415 40.8306 16.2367 41.2091C16.8653 41.6895 17.2773 42.3999 17.3821 43.1841C17.4869 43.9683 17.2759 44.762 16.7954 45.3907C16.417 45.8859 15.8957 46.2467 15.3081 46.4287C15.0444 46.5104 14.85 46.7579 14.8866 47.0317L14.9665 47.6299C15.0031 47.9039 15.2551 48.0951 15.5303 48.0697C16.913 47.942 18.3087 48.0582 19.6535 48.4142C21.1598 48.8129 22.5727 49.5047 23.8114 50.45C25.0502 51.3953 26.0904 52.5755 26.8726 53.9232C27.6548 55.2708 28.1636 56.7595 28.3699 58.3039Z" fill="#F89934"/>
        <path d="M31.7251 27.2345L122.837 15.0607C123.749 14.9389 124.672 15.1843 125.403 15.7429C126.133 16.3015 126.613 17.1276 126.734 18.0395L133.855 71.3313C133.977 72.2431 133.731 73.1661 133.173 73.897C132.614 74.6279 131.788 75.107 130.876 75.2288L39.7644 87.4027C38.8525 87.5245 37.9296 87.2791 37.1987 86.7205C36.4677 86.1618 35.9887 85.3357 35.8668 84.4239L28.7463 31.1321C28.6245 30.2202 28.8698 29.2973 29.4285 28.5664C29.9871 27.8354 30.8132 27.3563 31.7251 27.2345ZM130.646 73.5098C131.102 73.4488 131.515 73.2093 131.795 72.8438C132.074 72.4784 132.197 72.0169 132.136 71.561L125.015 18.2692C124.954 17.8133 124.715 17.4002 124.349 17.1209C123.984 16.8416 123.522 16.7189 123.067 16.7798L31.9548 28.9536C31.4988 29.0145 31.0858 29.2541 30.8065 29.6195C30.5272 29.985 30.4045 30.4465 30.4654 30.9024L37.5859 84.1942C37.6468 84.6501 37.8864 85.0632 38.2518 85.3425C38.6173 85.6218 39.0788 85.7445 39.5347 85.6836L130.646 73.5098Z" fill="#F89934"/>
        <path d="M66.6908 82.9301L58.8812 24.481L57.1621 24.7107L64.9717 83.1598L66.6908 82.9301Z" fill="#F89934"/>
        <path d="M51.8073 42.4514L46.278 40.3556C46.5789 42.6076 46.7185 46.0098 43.5897 46.4278C40.7361 46.8091 36.2869 44.6127 35.5645 39.2061C34.594 31.943 39.8516 33.5765 41.3195 34.6752L41.7249 37.7094C40.5849 36.8381 36.2964 35.5825 36.7753 39.1668C37.09 41.522 40.7116 43.2866 43.0839 42.9696C44.571 42.7709 44.6747 40.9285 44.593 39.6621L44.1658 36.4646L53.9912 40.1999L54.4265 43.4576L55.0719 48.2882L52.4832 47.313L51.8073 42.4514Z" fill="#F89934"/>
        <path d="M49.8903 60.4504C45.8012 59.2469 42.1046 55.6114 41.6578 52.2678C41.2111 48.9241 44.1922 47.2047 48.2813 48.4082C52.3703 49.6116 56.0864 53.262 56.5297 56.5799C56.973 59.8977 54.0211 61.6395 49.8903 60.4504ZM49.455 57.1927C52.4225 58.0561 54.6412 57.5059 54.4379 55.9845C54.2346 54.4631 51.684 52.5292 48.7165 51.6658C45.749 50.8025 43.5475 51.3504 43.7508 52.8718C43.9541 54.3932 46.507 56.3443 49.455 57.1927Z" fill="#F89934"/>
        <path d="M55.0451 75.851L42.4636 64.8462L42.1466 62.4738L54.7282 73.4787L55.0451 75.851ZM49.8977 62.4705C51.844 63.0241 53.559 64.7285 53.7726 66.3272C53.9862 67.926 52.6008 68.6885 50.6569 68.1521C48.7129 67.6157 47.0093 65.8661 46.7992 64.2931C46.589 62.7202 47.9847 61.9037 49.9063 62.4694L49.8977 62.4705ZM47.7792 64.5559C47.8756 65.2779 49.073 66.1853 50.449 66.5964C51.825 67.0074 52.8811 66.7263 52.7846 66.0043C52.6881 65.2823 51.5063 64.4254 50.101 63.9919C48.6958 63.5585 47.6913 63.8327 47.7878 64.5547L47.7792 64.5559ZM47.2963 75.8715C45.3587 75.3167 43.6351 73.6135 43.4215 72.0148C43.2078 70.416 44.5984 69.6266 46.5372 70.1899C48.476 70.7533 50.1847 72.4759 50.3949 74.0489C50.6051 75.6219 49.2351 76.4348 47.3049 75.8703L47.2963 75.8715ZM49.4149 73.7861C49.3184 73.0641 48.1297 72.1556 46.7451 71.7457C45.3605 71.3358 44.313 71.6157 44.4095 72.3377C44.506 73.0597 45.6964 73.9155 47.0931 74.3501C48.4897 74.7847 49.5177 74.4898 49.4235 73.785L49.4149 73.7861Z" fill="#F89934"/>
        <path d="M52.1041 41.397L46.5747 39.3011C46.8745 41.5446 47.0152 44.9553 43.8865 45.3734C41.0328 45.7546 36.5825 43.5496 35.8601 38.1431C34.8908 30.8885 40.1472 32.5134 41.6163 33.6207L42.0217 36.6549C40.8805 35.775 36.592 34.5195 37.0721 38.1124C37.3856 40.4589 41.0072 42.2235 43.3795 41.9065C44.8666 41.7079 44.9703 39.8655 44.8886 38.599L44.4614 35.4015L54.2146 39.1202L54.6499 42.3779L55.2953 47.2086L52.714 46.2236L52.1041 41.397Z" fill="#F89934"/>
        <path d="M50.2213 59.3913C46.1323 58.1878 42.4357 54.5523 41.9889 51.2087C41.5422 47.865 44.5233 46.1456 48.6112 47.3405C52.6991 48.5353 56.4163 52.1944 56.8608 55.5208C57.3053 58.8472 54.2921 60.5884 50.2213 59.3913ZM49.7849 56.125C52.7524 56.9884 54.9723 56.4468 54.7679 54.9168C54.5634 53.3868 52.014 51.4615 49.0465 50.5981C46.079 49.7348 43.8775 50.2827 44.0819 51.8127C44.2863 53.3427 46.8037 55.2898 49.7849 56.125Z" fill="#F89934"/>
        <path d="M55.349 74.7864L42.7675 63.7816L42.4505 61.4092L55.032 72.4141L55.349 74.7864ZM50.2016 61.406C52.149 61.9682 53.8628 63.6639 54.0765 65.2627C54.2901 66.8614 52.9046 67.6239 50.9607 67.0875C49.0168 66.5511 47.3132 64.8015 47.103 63.2285C46.8928 61.6556 48.28 60.8403 50.2016 61.406ZM48.083 63.4913C48.1795 64.2133 49.378 65.1293 50.7528 65.5318C52.1277 65.9342 53.186 65.6703 53.0896 64.9483C52.9931 64.2263 51.8112 63.3694 50.406 62.9359C49.0008 62.5025 47.9865 62.7693 48.083 63.4913ZM47.6013 74.8155C45.6625 74.2521 43.9389 72.5489 43.7264 70.9588C43.514 69.3686 44.9045 68.5792 46.8422 69.1339C48.7798 69.6887 50.4897 71.4199 50.6999 72.9929C50.9101 74.5659 49.5304 75.3714 47.6013 74.8155ZM49.7187 72.7215C49.6223 71.9995 48.4335 71.091 47.0501 70.6897C45.6666 70.2884 44.6168 70.5511 44.7133 71.2731C44.8098 71.9951 46.0002 72.8509 47.3969 73.2855C48.7935 73.7201 49.8129 73.4264 49.7187 72.7215Z" fill="#F89934"/>
        <path d="M109.772 31.8717C109.264 31.7997 107.941 30.4104 108.231 29.7679C112.238 30.4837 112.713 28.3467 111.549 27.225C110.384 26.1033 109.122 26.2807 107.031 27.7236C105.278 28.9464 104.35 30.7065 102.34 31.9024C100.091 33.209 97.7348 33.6464 95.25 31.2225C91.4067 27.5365 94.2623 23.8304 98.1396 24.0385C98.1396 24.0385 100.185 26.2499 99.39 26.1286C95.9002 26.2012 95.1691 28.7836 96.335 29.9139C97.2504 30.8065 98.1574 30.4578 99.6718 29.678C101.186 28.8983 102.045 27.7949 104.357 25.4562C106.783 23.4436 110.119 23.4616 112.847 26.0716C115.681 28.8163 114.506 32.5954 109.772 31.8717Z" fill="#F89934"/>
        <path d="M115.344 46.0006C114.63 45.8334 106.352 43.7899 104.417 43.2524C102.325 42.657 101.438 42.0406 101.044 41.3846C100.525 40.5177 100.769 39.724 102.189 39.4817C100.714 39.1102 99.2797 38.4619 98.637 37.3842C97.3648 35.262 99.4765 33.1251 104.217 33.314C108.958 33.5029 111.236 34.8346 112.066 36.2023C112.28 36.6794 112.326 37.2148 112.196 37.7214C112.067 38.2279 111.77 38.6758 111.354 38.9921C112.693 38.927 113.639 38.8706 113.639 38.8706L115.142 41.3469C115.142 41.3469 109.646 41.6 107.987 41.6904C107.421 41.7049 106.305 41.8015 106.279 41.9975C106.252 42.1934 106.776 42.3772 107.371 42.5776C108.234 42.8823 115.556 44.9049 116.512 45.1183C116.958 45.2512 115.608 46.079 115.344 46.0006ZM107.163 39.0534C109.465 39.0608 110.924 38.3934 110.468 37.597C110.011 36.8006 107.726 36.1347 105.434 36.1348C103.142 36.1348 101.675 36.812 102.133 37.617C102.59 38.422 104.885 39.0953 107.166 39.0792L107.163 39.0534Z" fill="#F89934"/>
        <path d="M118.624 51.4942C117.91 51.3271 109.632 49.2836 107.696 48.746C105.605 48.1506 104.726 47.5331 104.332 46.8771C103.713 45.8486 104.177 44.9293 106.337 44.8594C107.894 44.7914 123.527 43.9974 123.527 43.9974L125.011 46.4588C125.011 46.4588 112.896 47.0627 111.228 47.1543C110.662 47.1687 109.554 47.2642 109.52 47.4613C109.485 47.6585 110.025 47.8399 110.612 48.0415C111.464 48.3301 118.797 50.3687 119.753 50.5822C120.232 50.7018 118.893 51.5457 118.624 51.4942Z" fill="#F89934"/>
        <path d="M114.921 59.0753C112.531 58.2135 110.435 57.1287 109.377 55.3629C107.116 51.5355 109.566 48.9859 114.276 49.074C118.101 49.1578 120.599 50.5651 121.422 51.9425C122.782 54.2016 121.473 56.9051 117.338 56.3463C114.86 56.0038 113.199 54.8959 112.809 53.2858C112.707 52.9252 112.696 52.5454 112.775 52.1792C111.37 52.6644 110.903 53.6891 111.704 55.0344C112.424 56.2331 113.971 57.1375 115.986 57.8132C116.02 57.8086 115.834 59.3644 114.921 59.0753ZM114.836 51.895C114.733 51.9088 114.647 51.9203 114.544 51.934C114.405 53.055 115.522 53.5532 116.562 53.9392C118.002 54.4379 120.331 54.188 119.856 53.3853C119.381 52.5826 117.162 51.8817 114.836 51.895Z" fill="#F89934"/>
        <path d="M90.0204 47.7393L85.1382 48.3916L84.9372 46.8874L95.4667 45.4805L95.6677 46.9847L91.155 47.5877L91.5065 50.2179L96.0191 49.6149L96.2201 51.1191L85.6906 52.526L85.4897 51.0218L90.3719 50.3695L90.0204 47.7393Z" fill="#F89934"/>
        <path d="M85.9985 54.8298L85.7975 53.3256L96.6278 54.1708L96.8288 55.675L86.6014 59.3425L86.4004 57.8383L88.9548 56.9195L88.7033 55.0371L85.9985 54.8298ZM94.4683 55.2292L89.889 55.0712L90.09 56.5754L94.4683 55.2292Z" fill="#F89934"/>
        <path d="M97.2365 58.7263L97.4374 60.2305L88.034 61.4869L88.3854 64.1171L87.2594 64.2675L86.707 60.1331L97.2365 58.7263Z" fill="#F89934"/>
        <path d="M96.9496 65.2212L93.5716 65.6725L93.8219 67.5463L92.6873 67.6979L92.437 65.8241L87.5547 66.4765L87.3538 64.9722L97.8832 63.5654L98.4356 67.6998L97.301 67.8514L96.9496 65.2212Z" fill="#F89934"/>
        <path d="M75.432 48.5598L75.2815 47.4338L70.3993 48.0861L70.1983 46.5819L80.6934 45.1796L81.0448 47.8098C81.2963 49.6922 80.2628 50.6002 78.389 50.8506C78.0398 50.9352 77.676 50.9402 77.3247 50.8651C76.9733 50.7899 76.6434 50.6367 76.3593 50.4166C76.0753 50.1966 75.8444 49.9154 75.6839 49.594C75.5234 49.2725 75.4373 48.919 75.432 48.5598ZM79.8447 47.209L79.7941 46.8308L76.4161 47.2822L76.4712 47.6948C76.6412 48.9669 76.9634 49.545 78.227 49.3762C79.6836 49.1466 80.0445 48.7047 79.8493 47.2434L79.8447 47.209Z" fill="#F89934"/>
        <path d="M76.8035 55.9444L71.7728 58.3663L71.5729 56.8707L76.2553 54.7227L76.1049 53.5967L71.2227 54.2491L71.0217 52.7449L81.5167 51.3426L81.7682 53.225C82.0542 55.3653 81.489 56.7006 79.3917 56.9808C78.1814 57.0901 77.2387 56.7786 76.8035 55.9444ZM80.6623 53.329L80.6117 52.9508L77.2337 53.4022L77.2843 53.7804C77.4462 54.9923 77.9988 55.5922 79.2537 55.4245C80.5087 55.2568 80.8242 54.541 80.6623 53.329Z" fill="#F89934"/>
        <path d="M82.5908 59.3794L72.0613 60.7863L71.8603 59.2821L82.3898 57.8752L82.5908 59.3794Z" fill="#F89934"/>
        <path d="M72.5603 65.1116C72.2582 62.851 73.7903 62.0076 76.0509 61.7056L79.0507 61.3048C81.3114 61.0027 83.0025 61.4154 83.3046 63.676C83.5883 65.7991 82.3037 66.6619 80.1892 66.9444L79.9882 65.4402C81.269 65.2691 82.2345 65.0963 82.0668 63.8414C81.8992 62.5865 80.9106 62.5873 79.6299 62.7584L75.8651 63.2615C74.7133 63.4154 73.6453 63.803 73.798 64.9462C73.9508 66.0894 75.0717 66.0971 76.2234 65.9433L76.6016 65.8927L76.8026 67.3969L76.4244 67.4475C74.3357 67.7265 72.8428 67.2261 72.5603 65.1116Z" fill="#F89934"/>
        <path d="M78.263 69.7476L74.5067 70.2494L74.8593 72.8882L73.7333 73.0387L73.1798 68.8957L83.6748 67.4934L84.2284 71.6364L83.0938 71.788L82.7412 69.1492L79.3632 69.6006L79.6147 71.483L78.4801 71.6346L78.263 69.7476Z" fill="#F89934"/>
        <path d="M128.596 72.9074L41.7152 84.5158C40.8457 84.632 39.9657 84.398 39.2687 83.8653C38.5717 83.3326 38.1148 82.5449 37.9987 81.6754L31.2088 30.8584C31.0926 29.9889 31.3266 29.1088 31.8593 28.4118C32.392 27.7149 33.1797 27.258 34.0493 27.1418L120.93 15.5334C121.799 15.4172 122.679 15.6512 123.376 16.1839C124.073 16.7166 124.53 17.5043 124.646 18.3738L131.436 69.1908C131.552 70.0603 131.318 70.9404 130.786 71.6374C130.253 72.3343 129.465 72.7912 128.596 72.9074ZM34.2683 28.7811C33.8335 28.8392 33.4397 29.0676 33.1733 29.4161C32.907 29.7646 32.79 30.2046 32.8481 30.6394L39.6379 81.4563C39.696 81.8911 39.9244 82.285 40.2729 82.5513C40.6214 82.8177 41.0614 82.9347 41.4962 82.8766L128.377 71.2681C128.812 71.21 129.205 70.9816 129.472 70.6331C129.738 70.2846 129.855 69.8446 129.797 69.4098L123.007 18.5929C122.949 18.1581 122.721 17.7642 122.372 17.4979C122.024 17.2315 121.584 17.1145 121.149 17.1726L34.2683 28.7811Z" fill="#FBEDBE"/>
        <path d="M96.8935 19.5794L95.2543 19.7984L102.701 75.5331L104.34 75.3141L96.8935 19.5794Z" fill="#FBEDBE"/>
        <path d="M58.9285 45.7587C58.969 46.062 59.0073 46.3489 59.0457 46.6357C59.0733 46.9166 59.0577 47.2 58.9995 47.4762C58.9411 47.7365 58.829 47.9816 58.6701 48.1959C58.4689 48.4588 58.2132 48.6751 57.9206 48.83C57.5116 49.0496 57.0778 49.2196 56.6284 49.3364C55.9804 49.5143 55.3202 49.6443 54.6531 49.7254L48.6945 50.5216L47.1613 39.0468L53.1118 38.2517C53.7277 38.1614 54.3499 38.1201 54.9724 38.1283C55.4078 38.1329 55.8412 38.1899 56.2631 38.2978C56.5607 38.3795 56.8398 38.5178 57.085 38.7053C57.2758 38.861 57.4346 39.0523 57.5524 39.2685C57.665 39.4719 57.7424 39.6928 57.7815 39.922C57.8122 40.1515 57.8429 40.381 57.8724 40.6023C57.9163 40.8779 57.92 41.1584 57.8836 41.4351C57.8541 41.6454 57.7881 41.849 57.6887 42.0367C57.6068 42.2 57.4965 42.3475 57.3631 42.4723C57.2494 42.5923 57.1203 42.6965 56.9791 42.7823C56.6371 42.9962 56.2575 43.1432 55.8606 43.2154C56.3214 43.1762 56.7855 43.2217 57.23 43.3494C57.4119 43.4079 57.5872 43.4851 57.753 43.5799C57.9421 43.6859 58.1085 43.8281 58.2428 43.9983C58.4161 44.2121 58.5526 44.4532 58.6468 44.7118C58.7833 45.0479 58.8779 45.3995 58.9285 45.7587ZM52.6157 42.7813L53.5583 42.6554L53.1893 39.8932L52.2467 40.0191L52.6157 42.7813ZM53.3353 48.1663L54.2778 48.0403L53.7806 44.3192L52.8381 44.4451L53.3353 48.1663Z" fill="#FBEDBE"/>
        <path d="M66.1628 36.4662L66.3949 38.2038L63.7803 38.5532L64.1582 41.3809L66.617 41.0523L66.858 42.8555L64.3991 43.1841L64.8492 46.5527L67.4638 46.2034L67.6982 47.9574L60.2149 48.9573L58.6818 37.4825L66.1628 36.4662Z" fill="#FBEDBE"/>
        <path d="M72.1496 39.2533C72.1594 39.3271 72.2491 39.3735 72.4174 39.3844C72.5857 39.3953 72.8103 39.3903 73.084 39.3788L74.0315 39.3523C74.3957 39.344 74.7601 39.3594 75.1222 39.3984C75.4995 39.4364 75.8723 39.5095 76.2359 39.6167C76.6003 39.7206 76.9442 39.8863 77.2525 40.1066C77.5714 40.3341 77.8403 40.6247 78.0423 40.9604C78.2741 41.3661 78.4194 41.8154 78.4689 42.28C78.5193 42.657 78.5696 43.034 78.6189 43.4029C78.6442 43.7596 78.6248 44.1181 78.5613 44.4701C78.4969 44.8131 78.3745 45.1426 78.1993 45.4445C77.9969 45.7815 77.7218 46.0691 77.394 46.2862C76.9694 46.575 76.5048 46.8 76.015 46.9543C75.3368 47.1723 74.639 47.3241 73.9316 47.4079C73.2174 47.5145 72.4958 47.5635 71.7737 47.5544C71.2502 47.5536 70.7281 47.4975 70.2163 47.3871C69.8462 47.3083 69.4904 47.173 69.1616 46.9857C68.9144 46.8396 68.6946 46.6516 68.5117 46.4302C68.3605 46.2448 68.2421 46.0349 68.1618 45.8095C68.0964 45.6091 68.0494 45.4032 68.0212 45.1943L67.8657 44.0304L72.7343 43.3799L73.0223 45.5355L73.9649 45.4096L73.6572 43.1064C73.6473 43.0327 73.5577 42.9862 73.3872 42.959C73.1602 42.9209 72.9312 42.8958 72.7014 42.8837L71.7068 42.8081C71.3538 42.7885 70.9812 42.7465 70.6063 42.6881C70.2286 42.6287 69.8551 42.5448 69.4882 42.4371C69.1321 42.3301 68.7918 42.1764 68.4761 41.98C68.1759 41.788 67.916 41.5393 67.7109 41.248C67.4955 40.9331 67.361 40.5699 67.3193 40.1907C67.255 39.7278 67.2233 39.2609 67.2244 38.7935C67.2284 38.4143 67.2967 38.0384 67.4263 37.682C67.5445 37.3629 67.727 37.0716 67.9626 36.8261C68.24 36.5593 68.5607 36.3416 68.9111 36.1822C69.3658 35.9792 69.8392 35.8209 70.3246 35.7097C70.9623 35.5635 71.607 35.4495 72.2561 35.3681C72.9184 35.2719 73.5869 35.2244 74.2561 35.2261C74.7233 35.229 75.189 35.2814 75.6452 35.3825C75.9586 35.4623 76.2575 35.5913 76.5305 35.7648C76.7392 35.906 76.919 36.0859 77.0602 36.2947C77.1871 36.4753 77.2792 36.678 77.3319 36.8924C77.3839 37.0903 77.4246 37.291 77.4539 37.4934L77.5689 38.3541L73.0364 38.9597L72.8086 37.2548L71.866 37.3808L72.1496 39.2533Z" fill="#FBEDBE"/>
        <path d="M87.8009 33.5749L88.0812 35.6732L85.4748 36.0214L86.7298 45.4144L81.8612 46.0649L80.6062 36.6719L78.0162 37.018L77.7358 34.9197L87.8009 33.5749Z" fill="#FBEDBE"/>
        <path d="M52.3968 68.3054C51.6744 68.413 50.9447 68.4631 50.2144 68.4552C49.6988 68.4535 49.1849 68.3963 48.6816 68.2846C48.3262 68.2049 47.9865 68.0671 47.676 67.8767C47.4475 67.7245 47.2471 67.5339 47.0835 67.3135C46.9504 67.1194 46.8511 66.9042 46.7899 66.6769C46.7376 66.4763 46.6965 66.2729 46.6668 66.0677L45.8432 59.9041C45.8176 59.6956 45.8035 59.4858 45.801 59.2757C45.8014 59.0456 45.8414 58.8173 45.9194 58.6008C46.0199 58.3476 46.1637 58.1139 46.3443 57.91C46.5926 57.6451 46.8851 57.4253 47.2086 57.2606C47.6649 57.0206 48.1458 56.8305 48.6429 56.6935C50.0567 56.3266 51.5099 56.1325 52.9705 56.1153C53.4861 56.1169 54 56.1741 54.5033 56.2859C54.8587 56.36 55.1986 56.4952 55.5078 56.6856C55.7396 56.8298 55.9406 57.0184 56.0992 57.2406C56.2371 57.4263 56.3388 57.6363 56.3988 57.8597C56.458 58.0616 56.5023 58.2676 56.5312 58.476L57.3547 64.6396C57.3813 64.8456 57.3923 65.0533 57.3877 65.2609C57.3893 65.4974 57.3471 65.7321 57.2633 65.9533C57.1694 66.2119 57.0253 66.4494 56.8395 66.6523C56.5899 66.9175 56.2982 67.1397 55.9763 67.3099C55.5199 67.5499 55.0391 67.74 54.542 67.877C53.8395 68.0766 53.1221 68.2199 52.3968 68.3054ZM51.6679 66.4089L52.6105 66.283L51.5219 58.1359L50.5793 58.2618L51.6679 66.4089Z" fill="#FBEDBE"/>
        <path d="M64.9708 54.6453L65.2029 56.3829L62.5883 56.7323L62.9738 59.6174L65.4327 59.2889L65.6714 61.0756L63.2125 61.4042L63.8915 66.4859L59.0229 67.1364L57.4897 55.6616L64.9708 54.6453Z" fill="#FBEDBE"/>
        <path d="M73.471 53.5098L73.7032 55.2475L71.0886 55.5968L71.474 58.4819L73.9329 58.1534L74.1717 59.9401L71.7128 60.2687L72.3918 65.3504L67.5232 66.0009L65.99 54.5261L73.471 53.5098Z" fill="#FBEDBE"/>
        <path d="M81.9699 52.3739L82.2021 54.1115L79.5875 54.4609L79.9653 57.2886L82.4242 56.96L82.6651 58.7632L80.2062 59.0918L80.6574 62.4686L83.272 62.1193L83.5064 63.8733L76.0232 64.8732L74.49 53.3984L81.9699 52.3739Z" fill="#FBEDBE"/>
        <path d="M89.7495 58.2756L88.8069 58.4015L89.4312 63.0734L84.5626 63.7239L83.0294 52.2491L88.7668 51.4825C89.4567 51.3843 90.1528 51.3359 90.8497 51.3377C91.3336 51.3401 91.8154 51.4018 92.2842 51.5214C92.6101 51.6069 92.9147 51.7594 93.1783 51.9693C93.3956 52.1513 93.5754 52.3738 93.708 52.6243C93.8322 52.8773 93.9214 53.1461 93.9732 53.4231C94.0126 53.7182 94.0521 54.0133 94.0926 54.3165C94.1373 54.6268 94.1513 54.9407 94.1344 55.2536C94.1235 55.4734 94.0794 55.6903 94.0034 55.8968C93.9537 56.05 93.8732 56.1913 93.7669 56.3122C93.6786 56.4123 93.5784 56.5013 93.4686 56.5773C93.3452 56.6684 93.2133 56.7475 93.0747 56.8135C92.9245 56.8753 92.7742 56.9371 92.6218 56.9825C92.8197 56.973 93.0179 56.9886 93.2119 57.0287C93.4332 57.0738 93.6434 57.1619 93.8306 57.2881C94.0512 57.4322 94.2366 57.6242 94.3728 57.8497C94.5402 58.1451 94.6436 58.4724 94.6763 58.8103L95.1451 62.3183L90.2273 62.9754L89.7495 58.2756ZM88.5879 56.7623L89.5305 56.6363L89.065 53.1529L88.1225 53.2788L88.5879 56.7623Z" fill="#FBEDBE"/>
        <path d="M121.36 63.2707L121.695 65.7787L111.655 67.1203L111.368 64.9729C111.126 63.1615 111.696 61.8089 113.466 61.5723C113.96 61.4463 114.483 61.5167 114.926 61.7688C115.369 62.0208 115.697 62.4347 115.841 62.9236C115.892 62.3481 116.155 61.8121 116.579 61.4195C117.003 61.0269 117.557 60.8055 118.135 60.7984C118.512 60.7206 118.902 60.7249 119.278 60.811C119.654 60.8972 120.006 61.0631 120.312 61.2976C120.618 61.5321 120.87 61.8297 121.051 62.1701C121.232 62.5106 121.337 62.8859 121.36 63.2707ZM113.636 62.8428C112.218 63.0322 112.348 64.1327 112.537 65.5425L115.766 65.111L115.671 64.3979C115.674 64.1491 115.619 63.903 115.51 63.6792C115.401 63.4554 115.242 63.2602 115.044 63.1091C114.846 62.958 114.616 62.8552 114.372 62.809C114.127 62.7628 113.875 62.7743 113.636 62.8428ZM116.745 64.2545L116.84 64.9675L120.43 64.4879L120.335 63.7748C120.169 62.5371 119.554 62.0521 118.3 62.2196C117.046 62.3872 116.579 63.0168 116.745 64.2545Z" fill="#FBEDBE"/>
        <path d="M120.59 56.6913C120.887 58.9207 119.489 59.7582 117.276 60.0539L110.826 60.9158L110.634 59.4814L117.085 58.6195C118.412 58.4421 119.587 58.1768 119.409 56.849C119.232 55.5212 118.029 55.5734 116.701 55.7508L110.251 56.6127L110.062 55.2029L116.513 54.3411C118.726 54.0454 120.292 54.4619 120.59 56.6913Z" fill="#FBEDBE"/>
        <path d="M116.5 51.4978L109.976 54.5553L109.784 53.121L114.609 51.0164L109.405 50.2851L109.214 48.8507L116.313 50.0963L119.542 49.6648L119.734 51.0991L116.5 51.4978Z" fill="#FBEDBE"/>
        <path d="M112.023 44.2789L118.703 43.3864L118.898 44.8453L108.857 46.1869L108.714 45.1132L114.582 41.7679L108.377 42.5969L108.186 41.1625L118.226 39.821L118.363 40.8455L112.023 44.2789Z" fill="#FBEDBE"/>
        <path d="M110.448 33.9277L114.087 33.4414C116.104 33.172 117.512 33.7263 117.784 35.7589C118.056 37.7916 116.876 38.7001 114.826 38.9739L111.187 39.4602C109.138 39.7339 107.813 39.1851 107.539 37.1279C107.264 35.0706 108.432 34.1971 110.448 33.9277ZM110.635 38.074L115.02 37.4881C116.094 37.3446 116.781 36.9942 116.636 35.9123C116.492 34.8304 115.738 34.6808 114.664 34.8243L110.304 35.4069C109.23 35.5504 108.6 35.8932 108.743 36.9669C108.887 38.0406 109.561 38.2175 110.635 38.074Z" fill="#FBEDBE"/>
        <path d="M111.105 27.4828L113.927 26.7471L111.01 26.7697L106.25 26.6716L106.058 25.2372L116.339 25.6907L116.53 27.125L111.962 28.4612L109.141 29.2052L112.058 29.1825L116.817 29.2725L117.009 30.7068L107.208 33.8433L107.017 32.409L111.585 31.0728L114.404 30.3206L111.489 30.3515L106.73 30.2616L106.538 28.8272L111.105 27.4828Z" fill="#FBEDBE"/>
    </g>
    <defs>
        <clipPath id="clip0_664_7048">
            <rect width="83.0401" height="141.833" fill="white" transform="translate(140.584) rotate(82.3896)"/>
        </clipPath>
    </defs>
</svg>