<svg xmlns="http://www.w3.org/2000/svg" width="49" height="48" viewBox="0 0 49 48" fill="none">
    <mask id="mask0_991_7877" style="mask-type:alpha" maskUnits="userSpaceOnUse" x="0" y="0" width="49" height="48">
        <rect x="0.5" width="48" height="48" fill="#D9D9D9"/>
    </mask>
    <g mask="url(#mask0_991_7877)">
        <path d="M29.4544 3.74009C28.3652 4.39788 28.1589 4.49655 27.7545 4.52944C27.2347 4.57055 27.2182 4.56233 25.7658 3.71542C25.2377 3.40297 24.7839 3.14808 24.7591 3.14808C24.6684 3.14808 24.7096 4.20877 24.8334 5.17901C25.0727 7.00438 25.51 8.70642 26.1289 10.2522C27.2264 13.0067 28.6375 14.6759 31.8804 17.0439C34.389 18.8857 35.4204 19.708 36.3364 20.6042C37.6484 21.8869 38.1435 22.7092 38.2178 23.7287C38.3086 24.9374 37.9372 25.7761 36.7655 27.0095C36.3859 27.4124 36.0888 27.7495 36.1053 27.7659C36.1384 27.7906 41.4608 30.6355 41.5515 30.6767C41.6671 30.726 42.8388 29.0651 43.2514 28.2675C44.0436 26.7217 44.3324 25.3239 44.2416 23.5067C44.1756 22.1994 43.9033 21.1469 43.3339 19.9711C42.748 18.7789 42.0466 17.8086 40.8996 16.6246C39.7691 15.457 38.8449 14.6759 36.65 13.0725C33.4978 10.7702 32.6148 9.92333 31.9217 8.52552C31.3936 7.44839 30.981 5.72169 30.7582 3.58386L30.6922 3.00007L29.4544 3.74009Z" fill="#F89934"/>
        <path d="M9.89766 9.81629C7.79345 10.0794 5.82952 11.1154 4.69077 12.5461C1.70362 16.3284 4.62476 21.155 10.2442 21.7305C11.1354 21.821 12.2494 21.747 13.2561 21.5168C14.0318 21.3441 14.1638 21.3852 15.9462 22.3637C17.2748 23.0955 17.3903 23.1448 17.5966 23.0461C17.9597 22.8817 20.6663 21.3934 20.6663 21.3523C20.6663 21.3359 20.2124 21.0974 19.6595 20.8179C18.4135 20.2012 18.133 19.9956 17.9349 19.5598C17.7121 19.0747 17.7369 18.7623 18.0669 18.014C18.8014 16.3449 18.7848 14.9882 17.9927 13.467C17.6048 12.7188 16.7879 11.7979 15.9957 11.2388C14.3866 10.0958 12.0514 9.55317 9.89766 9.81629ZM12.5547 11.4197C14.9395 11.9048 16.7797 13.5081 17.0355 15.2924C17.1923 16.4353 16.7879 17.4796 15.7894 18.458C14.9725 19.2638 13.8585 19.8394 12.6125 20.1025C11.647 20.2998 10.0709 20.2752 9.23751 20.0532C6.46491 19.3049 4.71553 17.2904 5.07035 15.2513C5.39217 13.4095 7.1003 11.9377 9.52633 11.4197C10.2607 11.2552 11.7791 11.2552 12.5547 11.4197Z" fill="#F89934"/>
        <path d="M41.9146 12.9245C40.8831 13.1136 39.7113 13.426 39.7443 13.5083C39.7608 13.5411 39.9424 13.7138 40.1487 13.8947C40.3632 14.0674 40.8831 14.5361 41.3204 14.9307L42.1043 15.6543L43.7795 14.6429C44.7037 14.0838 45.4628 13.5905 45.4793 13.5411C45.5288 13.3767 45.075 13.0149 44.6542 12.8916C44.1013 12.7271 42.9543 12.7436 41.9146 12.9245Z" fill="#F89934"/>
        <path d="M27.5071 19.3625C19.4698 23.7697 14.8406 26.2858 14.428 26.4749L13.9659 26.6805L13.2645 26.5407C10.5826 26.0145 8.21438 26.3927 6.29996 27.6425C3.09001 29.7556 2.58665 33.4722 5.16121 36.0458C7.49647 38.3727 11.6554 38.9812 14.8818 37.4683C16.2269 36.8433 17.4481 35.6922 18.0258 34.5246C18.7602 33.0446 18.7767 31.6797 18.067 30.1257C17.6462 29.1801 17.6957 28.547 18.2403 28.0536C18.3723 27.9385 21.8546 26.1049 25.9723 23.9917C32.0208 20.8837 33.4484 20.1272 33.3576 20.045C33.2999 19.9874 32.5984 19.4612 31.798 18.8774L30.3457 17.8085L27.5071 19.3625ZM22.7788 23.4162C23.5545 23.9506 22.8036 25.1264 21.9701 24.6824C21.8794 24.6331 21.7556 24.4686 21.6896 24.3124C21.5905 24.074 21.5905 23.9917 21.6896 23.7533C21.7556 23.5971 21.8711 23.4326 21.9619 23.3833C22.1764 23.26 22.5808 23.2764 22.7788 23.4162ZM12.9922 28.0454C14.4775 28.4565 15.6492 29.1965 16.3424 30.1668C18.1826 32.7404 16.3176 35.8896 12.4971 36.6625C11.5729 36.8433 9.91425 36.7858 9.03131 36.5309C6.39073 35.7827 4.70736 33.7517 5.07044 31.7619C5.39226 29.9859 7.12514 28.4894 9.44389 27.9714C10.3763 27.7658 12.0845 27.7987 12.9922 28.0454Z" fill="#F89934"/>
        <path d="M25.8648 25.7514C24.9324 26.2283 24.1237 26.6559 24.0659 26.6888C23.8926 26.8039 35.3296 33.0282 36.7077 33.5709C39.6948 34.7549 41.8073 35.2976 43.4329 35.2976C44.3983 35.2976 44.9677 35.1496 45.2978 34.8043C45.4298 34.6727 45.5206 34.5411 45.4958 34.5247C45.4216 34.4589 43.6639 33.5133 36.097 29.4597C31.7648 27.1492 28.068 25.1676 27.8865 25.0607L27.5564 24.8716L25.8648 25.7514Z" fill="#F89934"/>
        <path d="M29.735 32.6911C28.9593 33.3735 28.3486 34.0395 27.6307 35.0098C26.2692 36.8516 25.2212 39.8199 24.8251 42.9444C24.7179 43.8242 24.6683 44.9178 24.7426 44.9178C24.7591 44.9178 25.279 44.6218 25.9061 44.26C27.1686 43.5282 27.4905 43.4131 27.9608 43.52C28.1341 43.5529 28.8025 43.9064 29.4461 44.2929C30.0898 44.6793 30.6344 45 30.6674 45C30.6922 45 30.7417 44.6958 30.7664 44.3175C30.8489 43.4213 31.113 41.9002 31.3193 41.1355C31.9464 38.8332 32.9366 37.6163 35.8743 35.4949L36.4354 35.092L36.1631 34.9769C35.1399 34.5329 33.8278 33.8751 32.326 33.0529C31.3688 32.5184 30.5519 32.0908 30.5024 32.0908C30.4611 32.0908 30.1145 32.3622 29.735 32.6911Z" fill="#F89934"/>
    </g>
</svg>