<svg xmlns="http://www.w3.org/2000/svg" width="43" height="42" viewBox="0 0 43 42" fill="none">
    <g clip-path="url(#clip0_991_7890)">
        <path d="M16.25 17.5C11.4253 17.5 7.5 13.5747 7.5 8.75C7.5 3.92525 11.4253 0 16.25 0C21.0748 0 25 3.92525 25 8.75C25 13.5747 21.0748 17.5 16.25 17.5ZM8.8125 21C4.2275 21 0.5 24.7275 0.5 29.3125V35.4375C0.5 36.155 1.095 36.75 1.8125 36.75H18V31.0625C18 27.7725 20.45 25.06 23.6175 24.5875C24.0725 23.2575 24.93 22.1375 26.0325 21.3325C24.2825 20.832 24.188 21 8.8125 21ZM39.4375 28H37.25V26.6875C37.25 24.9988 35.8763 23.625 34.1875 23.625H29.8125C28.1238 23.625 26.75 24.9988 26.75 26.6875V28H24.5625C24.1531 28.0001 23.7479 28.0827 23.3711 28.243C22.9943 28.4032 22.6538 28.6378 22.3698 28.9328L32 33.957L41.6303 28.9328C41.3462 28.6378 41.0057 28.4032 40.6289 28.243C40.2521 28.0827 39.8469 28.0001 39.4375 28ZM29.375 28V26.6875C29.375 26.5715 29.4211 26.4602 29.5031 26.3781C29.5852 26.2961 29.6965 26.25 29.8125 26.25H34.1875C34.3035 26.25 34.4148 26.2961 34.4969 26.3781C34.5789 26.4602 34.625 26.5715 34.625 26.6875V28H29.375Z" fill="#F89934"/>
        <path d="M32.6073 36.6012C32.42 36.6988 32.212 36.7497 32.0009 36.7497C31.7898 36.7497 31.5817 36.6988 31.3945 36.6012L21.5 31.4387V38.9375C21.5 40.6262 22.8738 42 24.5625 42H39.4375C41.1262 42 42.5 40.6262 42.5 38.9375V31.4387L32.6073 36.6012Z" fill="#F89934"/>
    </g>
    <defs>
        <clipPath id="clip0_991_7890">
            <rect width="42" height="42" fill="white" transform="translate(0.5)"/>
        </clipPath>
    </defs>
</svg>