<svg xmlns="http://www.w3.org/2000/svg" width="49" height="48" viewBox="0 0 49 48" fill="none">
    <mask id="mask0_991_7905" style="mask-type:alpha" maskUnits="userSpaceOnUse" x="0" y="0" width="49" height="48">
        <rect x="0.5" width="48" height="48" fill="#D9D9D9"/>
    </mask>
    <g mask="url(#mask0_991_7905)">
        <path d="M6.38845 3.14427C5.0247 3.50875 3.99129 4.55981 3.62706 5.93296C3.51694 6.37373 3.5 8.17918 3.5 20.9105C3.5 31.3109 3.52541 35.5067 3.59318 35.8288C3.88117 37.168 4.90611 38.2954 6.21904 38.7022C6.71033 38.8548 7.10845 38.8633 14.122 38.8633H21.5083L21.2796 38.1598C20.89 36.99 20.746 36.1254 20.746 34.8794C20.7375 34.2522 20.7629 33.5232 20.8053 33.2689C20.8476 32.9299 20.8392 32.8451 20.7799 32.9553C20.5596 33.3113 20.2801 33.3537 18.3658 33.3537C15.867 33.3537 15.867 33.3537 15.867 31.8704C15.867 30.9888 15.8754 30.9634 16.1126 30.7176L16.3583 30.4718H18.3404C20.5342 30.4718 20.602 30.4887 20.8307 31.0312C20.8985 31.1838 20.9493 31.5567 20.9578 31.8449C20.9662 32.3196 20.9747 32.345 21.034 32.0823C21.3135 30.938 22.0505 29.3105 22.9314 27.895L23.4735 27.0389L23.2872 26.7846C23.1347 26.5642 23.1093 26.4116 23.1093 25.7166C23.1093 24.3943 23.321 24.1993 24.761 24.1993C25.5996 24.1993 25.6335 24.1909 25.8114 23.9705C25.9046 23.8349 26.3958 23.2669 26.8956 22.6906L27.8104 21.648L27.497 21.2665L27.1836 20.8936H25.4302C23.7954 20.8936 23.6683 20.8851 23.465 20.7241C23.2025 20.5122 23.0669 20.0883 23.0669 19.4526C23.0669 18.7491 23.2025 18.3677 23.5159 18.1812C23.7615 18.0286 23.9563 18.0117 25.4895 18.0117H27.1921L27.3107 17.7913C27.37 17.6726 27.641 17.3675 27.9036 17.1216L28.3864 16.6809L27.7596 16.0536C27.0904 15.3925 26.7516 14.8246 26.6415 14.1973L26.5737 13.8159L17.4086 13.7735L8.2435 13.7311L8.01479 13.4938L7.77762 13.2649L7.75221 11.273C7.72679 9.57776 7.74374 9.24719 7.86232 9.0268C8.14185 8.4928 7.61668 8.51823 18.4251 8.51823C28.1238 8.51823 28.2848 8.51823 28.5558 8.68775C28.9116 8.90813 28.9963 9.14547 28.9963 9.89986V10.5102H29.6485C30.0128 10.5102 30.4448 10.5441 30.6057 10.578C30.8937 10.6458 30.9106 10.6373 31.097 10.3152C31.4527 9.67948 32.5709 8.85728 33.0876 8.85728C33.24 8.85728 33.2485 8.77251 33.2146 7.39088L33.1892 5.93296L32.8758 5.27182C32.3422 4.16142 31.4782 3.44094 30.2923 3.1358C29.5723 2.94931 7.08303 2.95779 6.38845 3.14427ZM13.1056 18.0964C13.2242 18.1388 13.402 18.2998 13.4952 18.4524C13.6477 18.6898 13.6731 18.8423 13.6477 19.5543C13.6223 20.3342 13.6053 20.385 13.3766 20.6308L13.1225 20.8936H11.0981H9.07361L8.82796 20.6478C8.59079 20.402 8.58232 20.3765 8.58232 19.5459C8.58232 18.0286 8.60773 18.0201 11.0557 18.0117C12.0637 18.0117 12.987 18.0456 13.1056 18.0964ZM20.5004 18.1812C20.6782 18.2914 20.7968 18.4439 20.8561 18.6643C20.9832 19.122 20.9747 20.0036 20.8307 20.3342C20.602 20.8766 20.5342 20.8936 18.3404 20.8936H16.3583L16.1126 20.6478C15.867 20.402 15.867 20.385 15.867 19.478C15.8754 18.0286 15.8839 18.0201 18.3658 18.0117C20.0684 18.0117 20.2547 18.0286 20.5004 18.1812ZM13.1225 24.3265C13.5122 24.4875 13.6646 24.8605 13.6646 25.6827C13.6646 26.5134 13.5122 26.8778 13.1056 27.0474C12.8599 27.1491 12.4534 27.1745 10.9371 27.1491L9.07361 27.1236L8.82796 26.8439C8.59079 26.5812 8.58232 26.5388 8.58232 25.6912C8.58232 24.9283 8.60773 24.7842 8.7602 24.5892C8.86185 24.4621 9.02279 24.318 9.12443 24.2841C9.21761 24.2417 10.0985 24.2078 11.0642 24.2078C12.4279 24.1993 12.8938 24.2248 13.1225 24.3265ZM20.3987 24.3265C20.8053 24.5299 20.9069 24.7927 20.9069 25.6827C20.9069 27.1236 20.7968 27.183 18.2303 27.1491L16.3583 27.1236L16.1126 26.8439C15.8754 26.5812 15.867 26.5388 15.867 25.6912C15.867 24.9283 15.8924 24.7842 16.0449 24.5892C16.1465 24.4621 16.3074 24.318 16.4091 24.2841C16.5023 24.2417 17.3832 24.2078 18.3488 24.2078C19.7804 24.1993 20.17 24.2248 20.3987 24.3265ZM13.3766 30.7345C13.6053 30.9803 13.6223 31.0312 13.6477 31.811C13.6731 32.523 13.6477 32.6756 13.4952 32.9129C13.402 33.0655 13.2242 33.2266 13.1056 33.2689C12.987 33.3198 12.0722 33.3537 11.0727 33.3537C8.60773 33.3537 8.58232 33.3368 8.58232 31.8195C8.58232 30.9888 8.59079 30.9634 8.82796 30.7176L9.07361 30.4718H11.0981H13.1225L13.3766 30.7345Z" fill="#F89934"/>
        <path d="M33.1638 10.2303C32.7403 10.3744 32.2575 10.8915 32.0966 11.3746C31.817 12.2053 31.3681 12.3918 30.5126 12.0358C30.0636 11.8408 29.8942 11.8154 29.513 11.8493C28.6067 11.9425 27.9545 12.68 27.9545 13.5954C27.9545 14.2396 28.1154 14.5193 29.0641 15.4856L29.8773 16.3163H33.7822H37.6871L38.5003 15.4856C38.9407 15.0364 39.3643 14.5447 39.432 14.4091C40.0334 13.2309 39.1949 11.8323 37.8989 11.8239C37.6786 11.8239 37.3313 11.9171 37.0349 12.0442C36.6622 12.2138 36.4674 12.2562 36.2471 12.2138C35.9337 12.1544 35.5187 11.7476 35.5187 11.4933C35.5187 11.2475 35.0443 10.5863 34.7224 10.3914C34.3582 10.1625 33.5874 10.0862 33.1638 10.2303Z" fill="#F89934"/>
        <path d="M29.3774 17.7832C28.9031 17.9696 28.7336 18.1052 28.4795 18.5035C28.2762 18.8256 28.2339 18.9866 28.2339 19.4188C28.2339 19.868 28.2678 19.9951 28.5134 20.3511C28.6659 20.5799 28.9285 20.8257 29.1233 20.9274C29.4536 21.0969 29.5807 21.1053 33.8414 21.1053H38.2122L38.5849 20.8511C39.0931 20.4867 39.3303 20.0375 39.3303 19.4273C39.3303 18.6222 38.9068 18.0205 38.1529 17.7662C37.7463 17.6306 29.7332 17.6476 29.3774 17.7832Z" fill="#F89934"/>
        <path d="M28.2087 23.2584C26.9635 24.6909 26.6162 25.1062 25.7607 26.2335C24.0835 28.4374 23.0332 30.2428 22.5503 31.7262C21.7711 34.1843 21.9235 36.5492 23.0162 38.8208C24.2699 41.423 26.6247 43.4149 29.6232 44.4151C31.0293 44.8813 31.8595 45 33.7823 45C35.7051 45 36.4844 44.8983 37.9582 44.4151C39.6693 43.8642 41.0754 43.0166 42.3799 41.779C45.3361 38.9395 46.2509 35.1421 44.8702 31.3193C44.1756 29.3698 42.346 26.6828 39.466 23.377C38.5766 22.3514 38.5681 22.3429 38.2971 22.4277C37.9413 22.5209 29.7418 22.5294 29.3098 22.4277L28.9964 22.3514L28.2087 23.2584ZM34.2481 26.5726C34.426 26.6997 34.4684 26.8269 34.5023 27.2592L34.5446 27.7762L35.0105 27.9203C35.5865 28.0983 36.0439 28.3865 36.5182 28.8697C36.8909 29.2511 37.2975 29.9631 37.2975 30.2343C37.2975 30.548 37.0519 30.8785 36.747 30.9802C36.3742 31.1074 36.0608 30.9718 35.8067 30.5564C35.2731 29.7173 34.8072 29.3867 34.0279 29.3104C33.1724 29.2172 32.283 29.6071 32.0119 30.175C31.8002 30.6242 31.834 31.1752 32.0966 31.4888C32.427 31.8787 32.8505 32.0567 34.0957 32.3364C35.9168 32.7433 36.7893 33.3027 37.2806 34.3538C37.5771 34.998 37.594 35.9897 37.3229 36.5915C36.9248 37.4561 35.9846 38.1173 34.7394 38.3885C34.5192 38.4394 34.5023 38.4733 34.5023 38.8886C34.4938 39.3548 34.4091 39.5328 34.1041 39.6939C33.8161 39.8549 33.5197 39.8125 33.2571 39.5921C33.0707 39.4311 33.0114 39.2955 32.9776 38.9056L32.9352 38.4309L32.3677 38.2359C31.0802 37.8036 30.1315 36.795 30.0298 35.7354C29.9875 35.2269 30.2416 34.8709 30.6736 34.8624C31.1056 34.8454 31.3428 35.0234 31.5376 35.5151C31.7493 36.0321 32.2067 36.5068 32.6726 36.7017C33.1978 36.9221 34.0449 36.956 34.6378 36.7865C35.5611 36.5237 35.9422 36.1508 35.9422 35.5235C35.9422 34.6505 35.3408 34.2012 33.7399 33.8622C31.8425 33.4553 31.0293 32.9637 30.5381 31.9126C30.3517 31.5312 30.3178 31.3278 30.3178 30.7683C30.3263 29.446 31.0632 28.4543 32.4185 27.9712L32.9352 27.7762L32.9776 27.2931C33.0114 26.9032 33.0707 26.7675 33.2571 26.6065C33.5451 26.3607 33.9517 26.3437 34.2481 26.5726Z" fill="#F89934"/>
    </g>
</svg>