<svg xmlns="http://www.w3.org/2000/svg" width="49" height="48" viewBox="0 0 49 48" fill="none">
    <mask id="mask0_991_7896" style="mask-type:alpha" maskUnits="userSpaceOnUse" x="0" y="0" width="49" height="48">
        <rect x="0.5" width="48" height="48" fill="#D9D9D9"/>
    </mask>
    <g mask="url(#mask0_991_7896)">
        <path d="M16.6144 4.94858C16.0786 5.19519 15.6959 5.62888 15.5259 6.16462C15.3898 6.58981 14.9136 9.57464 14.9646 9.63416C15.0156 9.67668 45.6633 16.1566 45.6888 16.1225C45.7313 16.0715 46.25 12.6105 46.25 12.3894C46.25 11.7176 45.6973 10.9012 45.051 10.5951C44.6598 10.408 17.8984 4.74449 17.4137 4.74449C17.2011 4.74449 16.8525 4.82953 16.6144 4.94858Z" fill="#F89934"/>
        <path d="M13.6465 14.8385C13.5785 15.1616 13.2808 16.5478 12.9917 17.9339L12.4645 20.451L8.37416 21.582C6.12066 22.2113 4.16479 22.7725 4.01172 22.8321C3.62055 22.9936 3.15284 23.4273 2.94025 23.827C2.54907 24.5753 2.54057 24.5413 5.11721 33.7764C6.8775 40.0947 7.52378 42.2802 7.70236 42.5778C8.02551 43.0966 8.58676 43.4367 9.23304 43.4962C9.69225 43.5388 10.7042 43.2751 23.1197 39.8226C30.484 37.7817 36.6492 36.0554 36.8108 35.9874C37.1935 35.8258 37.6272 35.4006 37.8398 34.9925C38.1629 34.3717 38.1374 34.0145 37.6612 32.3053C37.4231 31.4464 37.253 30.7236 37.27 30.6981C37.2955 30.681 37.9758 30.8001 38.7837 30.9787C40.5695 31.3613 41.0882 31.3613 41.709 30.9702C42.4828 30.494 42.4913 30.4685 43.5713 25.3662C44.107 22.8406 44.5322 20.7741 44.5237 20.7656C44.5152 20.7571 42.1172 20.2469 39.1919 19.6261C36.2666 19.0139 33.8685 18.4951 33.8515 18.4781C33.843 18.4696 33.7154 18.0784 33.5879 17.6192C33.4518 17.1515 33.2987 16.6753 33.2562 16.5563C33.1202 16.2076 32.6525 15.7229 32.2698 15.5188C31.632 15.1872 31.1218 15.2552 28.341 16.0375C26.9804 16.4202 25.7814 16.7348 25.6879 16.7348C25.5858 16.7348 22.8816 16.1821 19.6757 15.5018C16.4698 14.8215 13.8336 14.2687 13.8166 14.2687C13.7996 14.2687 13.723 14.5239 13.6465 14.8385ZM31.7085 17.3556C31.8616 17.7213 32.5674 20.4085 32.5334 20.502C32.5079 20.5871 5.42335 28.1554 5.36382 28.0874C5.34682 28.0789 5.12572 27.305 4.8706 26.3781C4.4199 24.7624 4.4114 24.6944 4.55596 24.5498C4.78557 24.3202 31.2748 16.9815 31.4789 17.092C31.564 17.1345 31.666 17.2536 31.7085 17.3556ZM39.7361 21.8881C41.3773 22.2368 41.5984 22.3303 41.794 22.7045C41.9216 22.9511 41.9131 23.0446 41.5644 24.7114C41.1732 26.5652 41.0457 26.8628 40.595 26.9734C40.3909 27.0244 37.4401 26.4547 36.9554 26.2676C36.6577 26.1485 36.4707 25.8509 36.4707 25.4767C36.4707 25.1196 37.0149 22.4324 37.1595 22.0667C37.3976 21.4885 37.7377 21.4629 39.7361 21.8881ZM33.7579 24.6604C33.809 24.8645 34.4042 27.0074 35.076 29.431C36.2411 33.6319 36.3941 34.2696 36.2325 34.3717C36.173 34.4057 10.2025 41.6339 9.59871 41.7785C9.47965 41.804 9.32659 41.7785 9.24155 41.719C9.1395 41.6424 8.66329 40.0522 7.73638 36.7187C6.98805 34.0315 6.38428 31.8291 6.39278 31.8206C6.4438 31.778 33.3923 24.3117 33.5113 24.3117C33.6134 24.3032 33.6899 24.4138 33.7579 24.6604Z" fill="#F89934"/>
        <path d="M11.2995 34.4228C9.55624 34.9161 9.37766 34.9841 9.21609 35.2222C9.012 35.5028 9.06302 35.894 9.4712 37.3907C9.96442 39.1765 10.058 39.3976 10.4151 39.5676C10.7383 39.7207 10.6447 39.7377 12.5751 39.2105C14.1143 38.7853 14.3694 38.6832 14.565 38.4026C14.7691 38.1135 14.735 37.8584 14.2758 36.2086C13.7741 34.4143 13.7401 34.3208 13.4255 34.1422C13.0938 33.9381 12.9748 33.9551 11.2995 34.4228Z" fill="#F89934"/>
    </g>
</svg>