<svg xmlns="http://www.w3.org/2000/svg" width="49" height="48" viewBox="0 0 49 48" fill="none">
    <mask id="mask0_991_7914" style="mask-type:alpha" maskUnits="userSpaceOnUse" x="0" y="0" width="49" height="48">
        <rect x="0.5" width="48" height="48" fill="#D9D9D9"/>
    </mask>
    <g mask="url(#mask0_991_7914)">
        <path d="M8.65912 3.10361C8.11478 3.27891 7.45971 3.75868 7.09989 4.24767C6.4725 5.10571 6.50018 4.62595 6.50018 13.7784C6.50018 21.9159 6.50018 22.0728 6.69393 22.571C6.79542 22.8478 7.07221 23.2906 7.30287 23.549L7.72727 24.0195L7.35822 24.407C7.14602 24.6192 6.87846 24.979 6.76774 25.2097L6.54631 25.6249V34.2053V42.7857L6.77697 43.247C7.06298 43.8375 7.70882 44.4833 8.2993 44.7693L8.76061 45H24.8604H40.9602L41.4215 44.7693C42.012 44.4833 42.6578 43.8375 42.9439 43.247L43.1745 42.7857L43.2022 34.3714C43.2206 26.0585 43.2206 25.957 43.0361 25.4496C42.9254 25.1728 42.6578 24.7299 42.4272 24.4716L42.0028 24.0103L42.4272 23.549C42.6578 23.2906 42.9254 22.8478 43.0361 22.571C43.2206 22.0636 43.2206 21.9528 43.2022 13.6492L43.1745 5.23487L42.9439 4.77356C42.6578 4.18308 42.012 3.53725 41.4215 3.25123L40.9602 3.02058L24.9988 3.00212C12.1836 2.9929 8.96359 3.01135 8.65912 3.10361ZM22.2309 6.36048C22.6553 6.58191 22.9229 6.8587 23.1628 7.31078C23.3104 7.58757 23.3381 7.84591 23.3381 9.20216C23.3381 10.706 23.3289 10.7983 23.0982 11.2319C22.9598 11.5087 22.7107 11.804 22.4708 11.97L22.0741 12.2468H16.5107H10.9472L10.5413 11.97C10.3291 11.8132 10.0431 11.4995 9.91389 11.2781C9.70169 10.8998 9.68324 10.7522 9.64633 9.52508C9.60943 7.75364 9.70169 7.32924 10.2737 6.75721C10.5505 6.48965 10.8457 6.28667 11.0764 6.22208C11.3071 6.1575 13.2261 6.12982 16.6491 6.13905C21.7973 6.1575 21.8711 6.1575 22.2309 6.36048ZM34.3081 6.38816C35.7105 6.74798 36.9007 7.4584 37.934 8.5471C41.5138 12.3022 40.3882 18.4192 35.7013 20.6888C34.5203 21.2609 33.9667 21.3808 32.3798 21.3808C30.7652 21.3808 30.184 21.2424 28.7816 20.5228C28.0988 20.1722 27.7851 19.9323 27.0194 19.1757C26.2628 18.41 26.0229 18.0963 25.6723 17.4135C24.9527 16.0111 24.8143 15.4299 24.8143 13.8153C24.8143 12.2284 24.9342 11.684 25.5063 10.4846C26.6042 8.20573 28.7908 6.60036 31.3649 6.20363C32.103 6.09292 33.4962 6.17595 34.3081 6.38816ZM21.8527 15.3468C22.3601 15.476 22.8675 15.8912 23.1351 16.3802C23.3196 16.74 23.3381 16.8876 23.3381 18.3361C23.3381 19.8308 23.3289 19.9323 23.1074 20.3567C22.969 20.615 22.7107 20.9195 22.48 21.0948L22.0741 21.3808H16.5107H10.9472L10.5413 21.104C10.3291 20.9472 10.0431 20.6335 9.91389 20.4121C9.70169 20.0245 9.68324 19.8954 9.65556 18.5484C9.61865 16.8323 9.72014 16.3986 10.2737 15.8543C10.8826 15.2546 10.8734 15.2546 16.4461 15.2546C19.7768 15.2454 21.5943 15.2823 21.8527 15.3468ZM41.1171 24.979C41.3293 25.1359 41.6153 25.4496 41.7444 25.671L41.9751 26.0862L42.0028 33.9193C42.0212 39.2613 41.9936 41.9092 41.929 42.2414C41.8644 42.555 41.7168 42.8411 41.5138 43.0809C40.8864 43.819 42.418 43.7545 24.8604 43.7545C7.30287 43.7545 8.83442 43.819 8.20704 43.0809C8.00406 42.8411 7.85644 42.555 7.79186 42.2414C7.72727 41.9092 7.69959 39.2613 7.71805 33.9193L7.74573 26.0862L7.9487 25.6987C8.16091 25.302 8.58531 24.9237 8.99127 24.7576C9.13889 24.7023 14.7484 24.6746 24.9711 24.6838L40.7111 24.7023L41.1171 24.979Z" fill="#F89934"/>
        <path d="M35.3322 11.0105C35.2307 11.0658 34.2435 12.0161 33.1456 13.1141L31.1343 15.1069L30.3131 14.2858C29.6119 13.5938 29.4366 13.4647 29.1875 13.4647C28.8646 13.4647 28.5509 13.7507 28.5509 14.0644C28.5509 14.1659 28.9015 14.618 29.3444 15.0885C30.7098 16.537 30.8206 16.6293 31.1527 16.6293C31.4295 16.6293 31.6878 16.3986 33.8375 14.2489C35.8858 12.2007 36.2087 11.8409 36.2087 11.601C36.2087 11.2688 36.1349 11.1581 35.8673 11.0105C35.6274 10.8905 35.5721 10.8905 35.3322 11.0105Z" fill="#F89934"/>
        <path d="M14.5733 26.7229C13.9182 26.9259 13.4753 27.2119 13.0233 27.6917C12.3497 28.4113 12.1837 28.8542 12.1744 29.9614C12.1744 30.8378 12.1929 30.9117 12.4881 31.4652C13.3831 33.1167 15.339 33.7626 16.9629 32.9414C17.5164 32.6554 18.19 31.9727 18.4667 31.4099C18.8081 30.6995 18.8727 29.5369 18.6051 28.8265C18.2269 27.8393 17.4242 27.0735 16.4554 26.7691C15.8188 26.5661 15.1084 26.5476 14.5733 26.7229Z" fill="#F89934"/>
        <path d="M25.1279 29.8966C24.8788 30.1088 24.8511 30.5886 25.0817 30.8192C25.2201 30.9669 25.8014 30.9761 32.4351 31.0038L39.6315 31.0222L39.853 30.8008C40.1297 30.5148 40.1482 30.2933 39.8899 29.9704L39.7053 29.7305H32.5181C25.6814 29.7305 25.3308 29.7398 25.1279 29.8966Z" fill="#F89934"/>
        <path d="M25.128 33.218C24.9896 33.338 24.925 33.4948 24.925 33.6978C24.925 33.9008 24.9896 34.0576 25.128 34.1776C25.331 34.3344 25.6816 34.3436 32.4906 34.3436H39.6317L39.8531 34.113C39.9823 33.993 40.0838 33.8085 40.0838 33.6978C40.0838 33.5871 39.9823 33.4026 39.8531 33.2826L39.6317 33.052H32.4906C25.6816 33.052 25.331 33.0612 25.128 33.218Z" fill="#F89934"/>
        <path d="M12.0175 34.8419C11.0395 35.1925 10.246 35.9306 9.89544 36.8255C9.71091 37.2961 9.69246 37.5359 9.65556 39.3904L9.61865 41.4386L9.85853 41.6785L10.0892 41.9092H15.4496H20.8101L21.0407 41.6785L21.2714 41.4479L21.2437 39.3443C21.216 37.2961 21.2068 37.2407 20.9669 36.724C20.644 36.0228 19.9797 35.3309 19.3339 35.0172L18.8172 34.7588L15.588 34.7404C13.0877 34.7219 12.285 34.7404 12.0175 34.8419Z" fill="#F89934"/>
        <path d="M25.128 36.5396C24.9896 36.6595 24.925 36.8163 24.925 37.0193C24.925 37.2223 24.9896 37.3791 25.128 37.4991C25.331 37.6559 25.6816 37.6652 32.4906 37.6652H39.6317L39.8531 37.4345C39.9823 37.3146 40.0838 37.13 40.0838 37.0193C40.0838 36.9086 39.9823 36.7241 39.8531 36.6041L39.6317 36.3735H32.4906C25.6816 36.3735 25.331 36.3827 25.128 36.5396Z" fill="#F89934"/>
        <path d="M25.2663 39.8057C24.8696 39.9995 24.805 40.4516 25.1187 40.8206C25.2479 40.9775 25.7184 40.9867 32.4812 40.9867H39.7054L39.8899 40.7468C40.1298 40.4423 40.1298 40.2394 39.9084 39.9626L39.7331 39.7412L32.5919 39.7227C27.7943 39.7135 25.3955 39.7412 25.2663 39.8057Z" fill="#F89934"/>
    </g>
</svg>