<svg xmlns="http://www.w3.org/2000/svg" width="49" height="48" viewBox="0 0 49 48" fill="none">
    <mask id="mask0_991_7927" style="mask-type:alpha" maskUnits="userSpaceOnUse" x="0" y="0" width="49" height="48">
        <rect x="0.5" width="48" height="48" fill="#D9D9D9"/>
    </mask>
    <g mask="url(#mask0_991_7927)">
        <path d="M22.4147 3.10723C18.0976 3.8111 14.353 6.56091 12.4291 10.4275C9.92326 15.4767 10.9462 22.0837 14.8222 25.8846L15.3666 26.429L16.3051 26.3351C18.1164 26.1568 20.8474 26.26 22.5836 26.551L23.2594 26.673L23.8881 26.185C25.7652 24.7584 27.9988 24.0452 30.5703 24.0452C32.2596 24.0452 33.4796 24.2704 34.9437 24.8711C35.0563 24.918 35.2346 24.7303 35.6569 24.1109C37.1867 21.8772 37.9093 19.6624 38.0032 16.9032C38.1252 13.0178 36.8488 9.74243 34.146 7.04893C32.1657 5.07808 29.8476 3.82987 27.0603 3.248C25.8496 2.98522 23.5597 2.91953 22.4147 3.10723ZM21.983 9.66735C23.325 10.3337 23.7286 12.5579 22.7526 13.9094C21.9361 15.0356 20.1811 15.12 19.252 14.0689C18.2759 12.9521 18.3416 11.0282 19.3833 10.0146C20.0778 9.35764 21.0914 9.21687 21.983 9.66735ZM28.5525 9.48903C28.881 9.65796 29.003 10.024 28.8622 10.39C28.637 10.9719 21.5701 23.1161 21.3073 23.3601C21.0914 23.5665 20.9694 23.6135 20.7723 23.5665C20.4157 23.4915 20.0778 23.0785 20.1248 22.7782C20.1811 22.4403 27.4732 9.8175 27.7642 9.55473C28.0457 9.31071 28.1865 9.30133 28.5525 9.48903ZM29.0687 18.3485C29.5192 18.5456 30.0823 19.1556 30.2887 19.6436C30.3732 19.8407 30.467 20.2724 30.4952 20.6196C30.5703 21.4643 30.3638 22.14 29.8476 22.7219C29.3502 23.2944 28.8622 23.5196 28.1302 23.5196C27.4075 23.5196 26.9195 23.2944 26.4315 22.7407C25.9153 22.1588 25.6901 21.4455 25.7652 20.6196C25.8308 19.8501 26.0092 19.409 26.469 18.9022C26.9289 18.3954 27.4263 18.1702 28.1302 18.1702C28.4774 18.1702 28.8434 18.2452 29.0687 18.3485Z" fill="#F89934"/>
        <path d="M20.5657 10.9907C20.2466 11.1596 20.0589 11.6195 20.0683 12.192C20.0777 12.924 20.6502 13.4965 21.1758 13.29C21.9923 12.9803 21.9923 11.2535 21.1758 10.9438C20.8754 10.8312 20.8661 10.8312 20.5657 10.9907Z" fill="#F89934"/>
        <path d="M27.6138 19.8595C27.229 20.2443 27.1258 20.92 27.3698 21.5019C27.6701 22.2152 28.5898 22.2152 28.8901 21.5019C29.1435 20.8919 28.9746 19.9909 28.571 19.7751C28.2613 19.6155 27.8202 19.6531 27.6138 19.8595Z" fill="#F89934"/>
        <path d="M28.956 25.6313C25.1739 26.3164 22.0393 29.1601 21.0726 32.7921C20.8568 33.5898 20.8286 33.8901 20.8286 35.204C20.8192 36.4429 20.8568 36.8558 21.0257 37.5409C21.8328 40.7975 24.3198 43.4535 27.5201 44.4858C30.5139 45.4619 33.5171 45.0395 36.1074 43.2939C36.8207 42.8059 38.1721 41.4638 38.6132 40.7787C40.6497 37.6817 40.8187 33.9558 39.0824 30.6148C37.7216 28.0245 35.1501 26.1569 32.2126 25.622C31.3398 25.4624 29.8476 25.4718 28.956 25.6313ZM31.077 29.9578C31.199 30.1174 31.2741 30.3426 31.2741 30.5679V30.9339H32.0625C32.9071 30.9339 33.2919 31.0277 33.489 31.2905C33.6767 31.5251 33.6485 31.9099 33.4327 32.1821L33.245 32.4167L31.4337 32.4542C29.3596 32.4824 29.2094 32.5387 29.0029 33.1957C28.9091 33.5429 28.9091 33.6274 29.078 33.9183C29.3314 34.3969 29.5942 34.5002 30.5796 34.5002C31.7527 34.5002 32.3065 34.6785 32.8789 35.251C34.2304 36.6024 33.6016 38.9674 31.7715 39.4273C31.3304 39.5399 31.321 39.5493 31.2929 39.9529C31.2553 40.4972 30.9832 40.7881 30.5139 40.7881C30.0634 40.7881 29.7725 40.4503 29.7725 39.9435V39.5868L28.8246 39.5493C27.9143 39.5211 27.8674 39.5118 27.6421 39.249C27.4638 39.0331 27.4263 38.9111 27.4638 38.6953C27.5858 38.0852 27.6515 38.0665 29.5285 38.0665C30.955 38.0665 31.2835 38.0383 31.5557 37.8975C32.2032 37.5785 32.3158 36.837 31.7997 36.3209L31.4806 36.0018H30.5515C28.9842 36.0018 28.2428 35.6451 27.7454 34.6316C27.4356 34.0028 27.3981 33.0924 27.6609 32.4542C27.9424 31.7597 28.9466 31.0277 29.6224 31.0277C29.735 31.0277 29.7725 30.9339 29.7725 30.6054C29.7725 30.2769 29.8288 30.1174 30.0071 29.9484C30.3262 29.62 30.8142 29.6294 31.077 29.9578Z" fill="#F89934"/>
        <path d="M16.4926 27.7994C15.0661 27.9683 14.381 28.0716 13.5363 28.2593C9.77295 29.1039 8.12119 30.5774 8.994 32.3324C9.68849 33.7213 12.1661 34.7162 15.8732 35.1103C16.5771 35.1854 17.6188 35.2511 18.1913 35.2511H19.233L19.2987 34.4252C19.477 32.3136 20.1621 30.4178 21.3634 28.7379C21.6544 28.3344 21.889 27.9871 21.8702 27.9777C21.7201 27.8182 17.5062 27.6868 16.4926 27.7994Z" fill="#F89934"/>
        <path d="M8.75 34.8756C8.75 35.9643 9.07848 36.5462 10.0639 37.2125C11.6594 38.273 14.3622 38.883 17.9661 38.9769L19.9088 39.0332L19.6835 38.151C19.5521 37.663 19.4301 37.1562 19.402 37.006L19.3551 36.7526H18.4823C16.3706 36.7526 13.6771 36.4148 12.0817 35.9549C11.2558 35.7109 9.66035 34.9977 9.05971 34.5941L8.75 34.3876V34.8756Z" fill="#F89934"/>
        <path d="M8.75 38.7423C8.75 40.1875 9.78235 41.1448 12.1474 41.905C13.8367 42.4399 16.1923 42.759 18.5104 42.759C19.6554 42.759 21.7858 42.6183 21.8702 42.5338C21.889 42.515 21.7295 42.271 21.523 41.9988C21.3165 41.7267 21.0162 41.2668 20.8473 40.9853L20.5376 40.4597H18.3321C14.1276 40.4503 10.9836 39.7183 8.96586 38.2918L8.75 38.1416V38.7423Z" fill="#F89934"/>
    </g>
</svg>