<svg width="130" height="130" viewBox="0 0 130 130" fill="none" xmlns="http://www.w3.org/2000/svg">
    <g clip-path="url(#clip0_404_4334)">
        <path d="M129.064 0.935303H0.934937V129.065H129.064V0.935303Z" fill="white"/>
        <path fill-rule="evenodd" clip-rule="evenodd" d="M0.934937 0.935303H25.1765V25.1769H0.934937V0.935303ZM4.39802 4.39838V21.7138H21.7134V4.39838H4.39802Z" fill="black"/>
        <path fill-rule="evenodd" clip-rule="evenodd" d="M7.86108 7.86157H18.2503V18.2508H7.86108V7.86157Z" fill="black"/>
        <path fill-rule="evenodd" clip-rule="evenodd" d="M129.069 0.935303V25.1769H104.827V0.935303L129.069 0.935303ZM125.606 4.39838L108.29 4.39838V21.7138H125.606V4.39838Z" fill="black"/>
        <path fill-rule="evenodd" clip-rule="evenodd" d="M122.143 7.86157V18.2508H111.754V7.86157L122.143 7.86157Z" fill="black"/>
        <path fill-rule="evenodd" clip-rule="evenodd" d="M0.934937 129.069L0.934937 104.828H25.1765V129.069H0.934937ZM4.39802 125.606H21.7134V108.291H4.39802L4.39802 125.606Z" fill="black"/>
        <path fill-rule="evenodd" clip-rule="evenodd" d="M7.86108 122.143L7.86108 111.754H18.2503V122.143H7.86108Z" fill="black"/>
        <path fill-rule="evenodd" clip-rule="evenodd" d="M28.6396 0.935303V11.3245H32.1027V18.2507H28.6396V39.0292H25.1765V35.5661H21.7134V32.103H25.1765V28.6399H21.7134V32.103H18.2503V28.6399H7.8611V32.103H0.934937V35.5661H7.8611V39.0292H11.3242V42.4923H14.7873V45.9553H11.3242V49.4184H7.8611V45.9553H0.934937V52.8815H4.39802V49.4184H7.8611V52.8815H11.3242V49.4184H14.7873V52.8815H28.6396V56.3446H21.7134V59.8077H28.6396V63.2708H21.7134V66.7338H18.2503V70.1969H14.7873V66.7338H11.3242V70.1969H14.7873V73.66H11.3242V77.1231H7.8611V80.5862H0.934937V101.365H4.39802V87.5123H7.8611V94.4385H11.3242V101.365H28.6396V104.828H32.1027V111.754H28.6396V122.143H35.5657V125.606H32.1027V129.069H42.4919V125.606H39.0288V122.143H35.5657V118.68H42.4919V122.143H56.3442V125.606H52.8811V129.069H56.3442V125.606H59.8073V129.069H63.2704V122.143H59.8073V115.217H56.3442V118.68H49.4181V115.217H52.8811V111.754H59.8073V104.828H56.3442V101.365H63.2704V104.828H66.7335V108.291H63.2704V111.754H66.7335V115.217H63.2704V118.68H66.7335V122.143H73.6596V129.069H77.1227V118.68H80.5858V129.069H87.5119V125.606H84.0489V122.143H94.4381V125.606H90.975V129.069H94.4381V125.606H97.9012V118.68H101.364V115.217H104.827V122.143H101.364V125.606H108.29V129.069H111.754V125.606H115.217V122.143H118.68V129.069H129.069V125.606H125.606V122.143H129.069V111.754H125.606V108.291H129.069V97.9016H122.143V90.9754H129.069V84.0492H125.606V80.5862H129.069V77.1231H125.606V80.5862H122.143V77.1231H118.68V73.66H122.143V70.1969H118.68V66.7338H129.069V56.3446H125.606V52.8815H129.069V49.4184H125.606V52.8815H122.143V49.4184H118.68V45.9553H115.217V42.4923H118.68V39.0292H122.143V35.5661H125.606V39.0292H129.069V35.5661H125.606V32.103H129.069V28.6399H118.68V32.103H111.754V28.6399H90.975V25.1769H94.4381V14.7876H97.9012V11.3245H101.364V7.86146H97.9012V11.3245H94.4381V14.7876H90.975V7.86146H94.4381V4.39838H87.5119V0.935303H84.0489V4.39838H80.5858V0.935303H77.1227V4.39838H73.6596V0.935303H70.1965V4.39838H66.7335V7.86146H59.8073V11.3245H66.7335V18.2507H63.2704V14.7876H59.8073V18.2507H63.2704V25.1769H59.8073V21.7138H56.3442V18.2507H52.8811V14.7876H49.4181V11.3245H39.0288V14.7876H35.5657V4.39838H39.0288V7.86146H49.4181V0.935303H42.4919V4.39838H39.0288V0.935303H35.5657V4.39838H32.1027V0.935303H28.6396ZM52.8811 0.935303V4.39838H56.3442V0.935303H52.8811ZM97.9012 0.935303V4.39838H101.364V0.935303H97.9012ZM84.0489 4.39838V7.86146H87.5119V4.39838H84.0489ZM52.8811 7.86146V11.3245H56.3442V7.86146H52.8811ZM70.1965 7.86146V11.3245H77.1227V14.7876H80.5858V25.1769H77.1227V18.2507H73.6596V14.7876H70.1965V18.2507H73.6596V25.1769H77.1227V28.6399H73.6596V32.103H70.1965V28.6399H66.7335V25.1769H70.1965V21.7138H66.7335V25.1769H63.2704V39.0292H56.3442V45.9553H52.8811V42.4923H49.4181V45.9553H45.955V42.4923H42.4919V45.9553H39.0288V39.0292H42.4919V35.5661H49.4181V28.6399H52.8811V32.103H56.3442V35.5661H59.8073V32.103H56.3442V28.6399H52.8811V25.1769H56.3442V21.7138H52.8811V18.2507H45.955V25.1769H42.4919V21.7138H39.0288V18.2507H42.4919V14.7876H39.0288V18.2507H35.5657V21.7138H32.1027V25.1769H35.5657V21.7138H39.0288V28.6399H32.1027V32.103H35.5657V35.5661H32.1027V39.0292H28.6396V45.9553H32.1027V39.0292H35.5657V45.9553H39.0288V49.4184H32.1027V56.3446H28.6396V59.8077H35.5657V56.3446H39.0288V59.8077H42.4919V63.2708H35.5657V66.7338H32.1027V70.1969H28.6396V66.7338H21.7134V70.1969H18.2503V80.5862H21.7134V84.0492H14.7873V87.5123H11.3242V94.4385H21.7134V97.9016H32.1027V90.9754H25.1765V87.5123H21.7134V84.0492H25.1765V80.5862H21.7134V77.1231H25.1765V73.66H28.6396V80.5862H35.5657V73.66H32.1027V70.1969H39.0288V73.66H56.3442V77.1231H59.8073V87.5123H66.7335V84.0492H70.1965V80.5862H73.6596V84.0492H77.1227V90.9754H73.6596V94.4385H70.1965V90.9754H66.7335V94.4385H70.1965V97.9016H77.1227V94.4385H80.5858V101.365H66.7335V97.9016H63.2704V90.9754H56.3442V87.5123H52.8811V90.9754H56.3442V94.4385H52.8811V97.9016H49.4181V94.4385H45.955V90.9754H42.4919V94.4385H45.955V97.9016H39.0288V101.365H32.1027V104.828H35.5657V111.754H32.1027V115.217H39.0288V111.754H42.4919V118.68H45.955V111.754H42.4919V108.291H45.955V104.828H42.4919V101.365H45.955V97.9016H49.4181V101.365H56.3442V97.9016H63.2704V101.365H66.7335V104.828H77.1227V108.291H70.1965V115.217H66.7335V118.68H70.1965V115.217H73.6596V118.68H77.1227V115.217H80.5858V118.68H90.975V111.754H94.4381V115.217H97.9012V94.4385H101.364V90.9754H104.827V77.1231H101.364V73.66H94.4381V70.1969H97.9012V63.2708H101.364V59.8077H97.9012V63.2708H94.4381V70.1969H90.975V66.7338H87.5119V63.2708H90.975V59.8077H94.4381V56.3446H97.9012V52.8815H101.364V56.3446H108.29V59.8077H111.754V63.2708H108.29V66.7338H101.364V70.1969H104.827V73.66H111.754V77.1231H115.217V73.66H118.68V70.1969H115.217V66.7338H111.754V63.2708H125.606V59.8077H122.143V52.8815H111.754V49.4184H108.29V52.8815H101.364V49.4184H104.827V45.9553H101.364V39.0292H97.9012V45.9553H94.4381V49.4184H97.9012V52.8815H87.5119V56.3446H84.0489V52.8815H70.1965V56.3446H66.7335V66.7338H63.2704V52.8815H59.8073V49.4184H56.3442V45.9553H59.8073V42.4923H63.2704V39.0292H70.1965V42.4923H66.7335V45.9553H63.2704V49.4184H84.0489V45.9553H87.5119V49.4184H90.975V45.9553H87.5119V42.4923H80.5858V39.0292H77.1227V35.5661H73.6596V32.103H80.5858V28.6399H84.0489V35.5661H90.975V42.4923H94.4381V32.103H90.975V28.6399H87.5119V25.1769H90.975V21.7138H87.5119V11.3245H80.5858V7.86146H70.1965ZM97.9012 18.2507V25.1769H101.364V18.2507H97.9012ZM49.4181 21.7138V25.1769H52.8811V21.7138H49.4181ZM84.0489 21.7138V25.1769H87.5119V21.7138H84.0489ZM39.0288 28.6399V35.5661H42.4919V32.103H45.955V28.6399H39.0288ZM11.3242 32.103V39.0292H18.2503V35.5661H14.7873V32.103H11.3242ZM97.9012 32.103V35.5661H104.827V32.103H97.9012ZM108.29 32.103V39.0292H104.827V42.4923H108.29V39.0292H111.754V42.4923H115.217V39.0292H118.68V35.5661H122.143V32.103H118.68V35.5661H115.217V39.0292H111.754V32.103H108.29ZM21.7134 39.0292V42.4923H18.2503V45.9553H21.7134V49.4184H25.1765V45.9553H21.7134V42.4923H25.1765V39.0292H21.7134ZM73.6596 39.0292V42.4923H77.1227V39.0292H73.6596ZM122.143 42.4923V45.9553H129.069V42.4923H122.143ZM42.4919 45.9553V52.8815H39.0288V56.3446H42.4919V52.8815H45.955V63.2708H42.4919V66.7338H45.955V70.1969H49.4181V66.7338H45.955V63.2708H49.4181V56.3446H56.3442V59.8077H52.8811V70.1969H56.3442V73.66H59.8073V77.1231H63.2704V73.66H59.8073V70.1969H63.2704V66.7338H59.8073V56.3446H56.3442V52.8815H49.4181V49.4184H52.8811V45.9553H49.4181V49.4184H45.955V45.9553H42.4919ZM108.29 52.8815V56.3446H111.754V52.8815H108.29ZM0.934937 56.3446V59.8077H7.8611V56.3446H0.934937ZM11.3242 56.3446V59.8077H14.7873V56.3446H11.3242ZM115.217 56.3446V59.8077H118.68V56.3446H115.217ZM70.1965 59.8077V66.7338H66.7335V70.1969H70.1965V73.66H73.6596V77.1231H80.5858V87.5123H84.0489V90.9754H87.5119V94.4385H84.0489V97.9016H87.5119V101.365H84.0489V108.291H80.5858V111.754H84.0489V115.217H87.5119V111.754H90.975V108.291H94.4381V97.9016H90.975V90.9754H101.364V87.5123H97.9012V84.0492H101.364V77.1231H94.4381V80.5862H90.975V84.0492H94.4381V87.5123H90.975V90.9754H87.5119V87.5123H84.0489V84.0492H87.5119V73.66H90.975V70.1969H87.5119V66.7338H84.0489V70.1969H80.5858V73.66H77.1227V70.1969H70.1965V66.7338H80.5858V63.2708H77.1227V59.8077H70.1965ZM0.934937 63.2708V70.1969H4.39802V73.66H7.8611V70.1969H4.39802V63.2708H0.934937ZM56.3442 66.7338V70.1969H59.8073V66.7338H56.3442ZM108.29 66.7338V70.1969H111.754V66.7338H108.29ZM21.7134 70.1969V73.66H25.1765V70.1969H21.7134ZM80.5858 73.66V77.1231H84.0489V73.66H80.5858ZM11.3242 77.1231V80.5862H7.8611V84.0492H11.3242V80.5862H14.7873V77.1231H11.3242ZM42.4919 77.1231V80.5862H39.0288V84.0492H35.5657V87.5123H42.4919V84.0492H45.955V80.5862H49.4181V84.0492H52.8811V77.1231H42.4919ZM66.7335 77.1231V80.5862H63.2704V84.0492H66.7335V80.5862H70.1965V77.1231H66.7335ZM94.4381 80.5862V84.0492H97.9012V80.5862H94.4381ZM111.754 80.5862V84.0492H108.29V94.4385H104.827V97.9016H108.29V94.4385H111.754V97.9016H115.217V104.828H122.143V108.291H125.606V104.828H122.143V97.9016H115.217V94.4385H118.68V90.9754H122.143V87.5123H115.217V94.4385H111.754V84.0492H118.68V80.5862H111.754ZM28.6396 84.0492V87.5123H32.1027V84.0492H28.6396ZM21.7134 90.9754V94.4385H25.1765V90.9754H21.7134ZM35.5657 90.9754V94.4385H39.0288V90.9754H35.5657ZM87.5119 101.365V104.828H90.975V101.365H87.5119ZM101.364 101.365V111.754H111.754V101.365H101.364ZM39.0288 104.828V108.291H42.4919V104.828H39.0288ZM52.8811 104.828V108.291H49.4181V111.754H52.8811V108.291H56.3442V104.828H52.8811ZM104.827 104.828V108.291H108.29V104.828H104.827ZM84.0489 108.291V111.754H87.5119V108.291H84.0489ZM73.6596 111.754V115.217H77.1227V111.754H73.6596ZM118.68 111.754V115.217H115.217V118.68H108.29V125.606H111.754V122.143H115.217V118.68H122.143V122.143H125.606V118.68H122.143V111.754H118.68ZM66.7335 125.606V129.069H70.1965V125.606H66.7335Z" fill="black"/>
    </g>
    <defs>
        <clipPath id="clip0_404_4334">
            <rect width="128.129" height="128.129" fill="white" transform="translate(0.934937 0.935303)"/>
        </clipPath>
    </defs>
</svg>