<svg width="117" height="40" viewBox="0 0 117 40" fill="none" xmlns="http://www.w3.org/2000/svg">
<path d="M33.2088 37.7778C31.8347 37.7778 30.7891 37.3956 30.0697 36.6322C29.3503 35.8689 28.99 34.7837 28.99 33.3778C28.99 32.6792 29.0998 32.0554 29.3195 31.5062C29.5392 30.957 29.839 30.4946 30.2212 30.1168C30.6024 29.7389 31.0582 29.4523 31.5865 29.2579C32.1148 29.0635 32.6871 28.9657 33.3054 28.9657C33.6635 28.9657 33.9875 28.9921 34.2808 29.0448C34.5729 29.0975 34.8288 29.159 35.0485 29.2271C35.2671 29.2963 35.4505 29.3677 35.5966 29.4402C35.7427 29.5127 35.8481 29.5709 35.9129 29.6104L35.3648 31.1459C35.1045 31.0075 34.8025 30.89 34.4565 30.7923C34.1116 30.6945 33.7195 30.6462 33.2802 30.6462C32.988 30.6462 32.7013 30.6945 32.4202 30.7923C32.1401 30.89 31.8918 31.046 31.6766 31.2613C31.4613 31.4765 31.2888 31.7544 31.1592 32.096C31.0285 32.4376 30.9637 32.8517 30.9637 33.3393C30.9637 33.7293 31.0066 34.0928 31.0911 34.43C31.1768 34.7672 31.3152 35.0583 31.5063 35.3021C31.6963 35.5459 31.9468 35.7392 32.2554 35.8809C32.5651 36.0226 32.9386 36.094 33.3768 36.094C33.6536 36.094 33.9018 36.0775 34.1204 36.0457C34.3401 36.0138 34.5356 35.9743 34.7058 35.9304C34.8772 35.8864 35.0265 35.8348 35.1572 35.7777C35.2869 35.7206 35.4044 35.6679 35.5098 35.6195L36.0348 37.1429C35.7668 37.3055 35.389 37.4516 34.9013 37.5823C34.4137 37.713 33.8491 37.7767 33.2077 37.7767L33.2088 37.7778Z" fill="#0F51FD"/>
<path d="M43.2641 37.6065C43.1707 37.3132 43.0697 37.0112 42.961 36.7026C42.8522 36.3928 42.7446 36.0853 42.638 35.7788H39.3386C39.232 36.0875 39.1244 36.3961 39.0179 36.7059C38.9113 37.0156 38.8103 37.3165 38.718 37.6076H36.7432C37.0617 36.6982 37.3626 35.8568 37.6482 35.0847C37.9338 34.3125 38.2128 33.5854 38.4863 32.9023C38.7597 32.2202 39.0277 31.5721 39.2935 30.9582C39.5582 30.3453 39.8339 29.7456 40.1195 29.1602H41.9219C42.1987 29.7456 42.4733 30.3453 42.7424 30.9582C43.0115 31.5721 43.2828 32.2202 43.5563 32.9023C43.8297 33.5854 44.1098 34.3125 44.3954 35.0847C44.681 35.8568 44.983 36.6982 45.3015 37.6076H43.2652L43.2641 37.6065ZM40.9795 31.0724C40.9367 31.1954 40.8752 31.3613 40.7928 31.5732C40.7115 31.7841 40.6182 32.028 40.5138 32.3047C40.4095 32.5815 40.293 32.8858 40.1634 33.2186C40.0338 33.5514 39.9031 33.9007 39.7702 34.2653H42.1866C42.057 33.8996 41.9318 33.5492 41.811 33.2153C41.6902 32.8814 41.5748 32.576 41.4661 32.2993C41.3574 32.0225 41.2618 31.7786 41.1794 31.5678C41.097 31.3569 41.0311 31.191 40.9795 31.0713V31.0724Z" fill="#0F51FD"/>
<path d="M51.6512 29.1591V30.7802H49.1041V37.6065H47.2017V30.7802H44.6547V29.1591H51.6512Z" fill="#0F51FD"/>
<path d="M57.5385 37.6065C57.4451 37.3132 57.3441 37.0112 57.2354 36.7026C57.1266 36.3928 57.019 36.0853 56.9124 35.7788H53.613C53.5064 36.0875 53.3988 36.3961 53.2923 36.7059C53.1857 37.0156 53.0847 37.3165 52.9924 37.6076H51.0176C51.3361 36.6982 51.637 35.8568 51.9226 35.0847C52.2082 34.3125 52.4872 33.5854 52.7607 32.9023C53.0342 32.2202 53.3022 31.5721 53.568 30.9582C53.8327 30.3453 54.1083 29.7456 54.3939 29.1602H56.1963C56.4731 29.7456 56.7477 30.3453 57.0168 30.9582C57.2859 31.5721 57.5572 32.2202 57.8307 32.9023C58.1042 33.5854 58.3842 34.3125 58.6698 35.0847C58.9554 35.8568 59.2574 36.6982 59.576 37.6076H57.5396L57.5385 37.6065ZM55.2539 31.0724C55.2111 31.1954 55.1496 31.3613 55.0672 31.5732C54.9859 31.7841 54.8926 32.028 54.7882 32.3047C54.6839 32.5815 54.5675 32.8858 54.4379 33.2186C54.3082 33.5514 54.1775 33.9007 54.0446 34.2653H56.461C56.3314 33.8996 56.2062 33.5492 56.0854 33.2153C55.9646 32.8814 55.8492 32.576 55.7405 32.2993C55.6318 32.0225 55.5362 31.7786 55.4538 31.5678C55.3715 31.3569 55.3056 31.191 55.2539 31.0713V31.0724Z" fill="#0F51FD"/>
<path d="M66.3042 35.9732V37.6065H60.6598V29.1591H62.5621V35.9732H66.3042Z" fill="#0F51FD"/>
<path d="M75.3229 33.3767C75.3229 34.1005 75.2153 34.7354 75 35.2845C74.7847 35.8326 74.4904 36.2928 74.1169 36.6619C73.7435 37.032 73.2976 37.3099 72.7824 37.4966C72.2662 37.6833 71.7115 37.7767 71.1184 37.7767C70.5253 37.7767 69.997 37.6833 69.4852 37.4966C68.9734 37.3099 68.5252 37.032 68.1441 36.6619C67.7619 36.2917 67.462 35.8326 67.2423 35.2845C67.0227 34.7365 66.9128 34.1005 66.9128 33.3767C66.9128 32.6529 67.0271 32.018 67.2544 31.4688C67.4829 30.9208 67.7893 30.4595 68.1748 30.0849C68.5604 29.7115 69.0074 29.4303 69.5148 29.2436C70.0223 29.0569 70.5572 28.9635 71.1184 28.9635C71.6797 28.9635 72.2399 29.0569 72.7517 29.2436C73.2635 29.4303 73.7106 29.7104 74.0928 30.0849C74.4739 30.4584 74.7749 30.9197 74.9945 31.4688C75.2131 32.0169 75.3229 32.6529 75.3229 33.3767ZM68.8745 33.3767C68.8745 33.7908 68.925 34.1653 69.0272 34.4981C69.1282 34.832 69.2743 35.1176 69.4654 35.3581C69.6565 35.5976 69.8905 35.7832 70.1662 35.9128C70.4419 36.0435 70.7593 36.1083 71.1162 36.1083C71.4732 36.1083 71.7807 36.0435 72.0608 35.9128C72.3409 35.7832 72.576 35.5976 72.7671 35.3581C72.9582 35.1187 73.1043 34.832 73.2064 34.4981C73.3075 34.1653 73.3591 33.7908 73.3591 33.3767C73.3591 32.9626 73.3086 32.5859 73.2064 32.2487C73.1043 31.9115 72.9582 31.6226 72.7671 31.3832C72.576 31.1437 72.3409 30.9581 72.0608 30.8285C71.7796 30.6989 71.4655 30.6341 71.1162 30.6341C70.767 30.6341 70.4419 30.7011 70.1662 30.8351C69.8894 30.9691 69.6565 31.1569 69.4654 31.3964C69.2743 31.6369 69.1282 31.9247 69.0272 32.2619C68.925 32.5991 68.8745 32.9714 68.8745 33.3778V33.3767Z" fill="#0F51FD"/>
<path d="M81.0289 30.622C80.1425 30.622 79.5033 30.868 79.109 31.3601C78.7147 31.8522 78.5181 32.5244 78.5181 33.3778C78.5181 33.7919 78.5664 34.1686 78.6641 34.5047C78.7619 34.8419 78.908 35.133 79.1035 35.3757C79.299 35.6195 79.5428 35.8084 79.835 35.9424C80.1271 36.0764 80.4687 36.1434 80.8586 36.1434C81.0695 36.1434 81.2508 36.1391 81.4012 36.1314C81.5517 36.1237 81.6835 36.1072 81.7977 36.0819V33.1438H83.699V37.3253C83.4716 37.4153 83.1059 37.5098 82.6028 37.6119C82.0987 37.713 81.477 37.7646 80.7378 37.7646C80.103 37.7646 79.5285 37.6669 79.0123 37.4725C78.4972 37.278 78.0556 36.9925 77.6899 36.619C77.3241 36.2456 77.0419 35.7865 76.8431 35.2417C76.6432 34.6969 76.5443 34.0752 76.5443 33.3767C76.5443 32.6781 76.6541 32.0444 76.8738 31.4996C77.0935 30.9548 77.3933 30.4935 77.7756 30.1157C78.1567 29.7378 78.607 29.4512 79.1221 29.2568C79.6384 29.0624 80.1887 28.9646 80.7741 28.9646C81.1728 28.9646 81.5319 28.991 81.8538 29.0437C82.1756 29.0964 82.4502 29.1579 82.683 29.226C82.9148 29.2952 83.1059 29.3666 83.2553 29.4391C83.4057 29.5127 83.5134 29.5698 83.5782 29.6093L83.0301 31.1328C82.7698 30.9944 82.471 30.8746 82.1338 30.7736C81.7966 30.6725 81.4287 30.6209 81.0311 30.6209L81.0289 30.622Z" fill="#0F51FD"/>
<path d="M84.9172 35.3658C84.9172 35.0572 84.9612 34.7749 85.0501 34.519C85.1402 34.2631 85.2588 34.0324 85.4093 33.8248C85.5587 33.6172 85.7333 33.4349 85.9321 33.2767C86.1309 33.1186 86.3396 32.9791 86.5582 32.8572C86.366 32.6188 86.1924 32.364 86.0387 32.0916C85.8849 31.8192 85.8069 31.5205 85.8069 31.1954C85.8069 30.4803 86.0211 29.9301 86.4527 29.5434C86.8833 29.1579 87.4775 28.9646 88.2332 28.9646C88.6143 28.9646 88.9471 29.0151 89.2327 29.1173C89.5171 29.2194 89.7544 29.3578 89.9455 29.5325C90.1366 29.7071 90.2816 29.9103 90.3783 30.142C90.476 30.3738 90.5243 30.6231 90.5243 30.8911C90.5243 31.3876 90.3837 31.828 90.1037 32.2146C89.8225 32.6013 89.4666 32.9242 89.0361 33.1845L90.4079 34.5431C90.4793 34.3817 90.5496 34.1774 90.6166 33.9303C90.6847 33.6831 90.7264 33.4668 90.7429 33.2811L92.2542 33.4755C92.2378 33.6304 92.2103 33.7985 92.1686 33.9819C92.1279 34.1653 92.0763 34.3498 92.0159 34.5366C91.9544 34.7233 91.8852 34.91 91.8083 35.0978C91.7314 35.2845 91.6469 35.4559 91.5579 35.6096C91.8182 35.9018 92.073 36.2203 92.3212 36.5663C92.5695 36.9112 92.7826 37.2583 92.9616 37.6075H91.1032C91.0362 37.501 90.945 37.367 90.8319 37.2088C90.7176 37.0507 90.6034 36.9145 90.4903 36.8003C90.1652 37.0617 89.7873 37.2791 89.3568 37.4538C88.9251 37.6295 88.4419 37.7163 87.9048 37.7163C87.3358 37.7163 86.8591 37.6449 86.478 37.5032C86.0958 37.3615 85.7882 37.1792 85.5576 36.9551C85.3258 36.7322 85.1611 36.4806 85.0633 36.2006C84.9656 35.9205 84.9172 35.6426 84.9172 35.3658ZM86.6109 35.1835C86.6109 35.3054 86.6351 35.4306 86.6845 35.5613C86.7328 35.6909 86.8119 35.8106 86.9228 35.9194C87.0327 36.0292 87.1733 36.1182 87.3435 36.1874C87.5148 36.2566 87.7224 36.2906 87.9674 36.2906C88.309 36.2906 88.6088 36.2456 88.8647 36.1544C89.1206 36.0633 89.3348 35.9446 89.5062 35.7964L87.5434 33.8457C87.4303 33.9028 87.3193 33.972 87.2095 34.0522C87.1008 34.1335 87.0019 34.229 86.9129 34.3378C86.824 34.4476 86.7515 34.5706 86.6944 34.709C86.6373 34.8474 86.6098 35.0055 86.6098 35.1835H86.6109ZM88.9768 30.9768C88.9768 30.7901 88.9152 30.6231 88.7933 30.4759C88.6714 30.3299 88.4693 30.2563 88.1837 30.2563C87.9234 30.2563 87.7224 30.3353 87.5807 30.4935C87.438 30.6517 87.3677 30.8571 87.3677 31.1097C87.3677 31.3206 87.4292 31.526 87.55 31.7259C87.6719 31.9247 87.829 32.1147 88.0223 32.2959C88.2826 32.1498 88.5078 31.9741 88.6945 31.7709C88.8812 31.5677 88.9768 31.303 88.9768 30.9768Z" fill="#0F51FD"/>
<path d="M94.0598 37.6065V29.1591H99.7163V30.7561H95.9622V32.5233H99.3023V34.1203H95.9622V37.6065H94.0598Z" fill="#0F51FD"/>
<path d="M106.138 37.6065C106.045 37.3132 105.944 37.0112 105.835 36.7026C105.727 36.3928 105.619 36.0853 105.512 35.7788H102.213C102.106 36.0875 101.999 36.3961 101.892 36.7059C101.786 37.0156 101.685 37.3165 101.592 37.6076H99.6176C99.9361 36.6982 100.237 35.8568 100.523 35.0847C100.808 34.3125 101.087 33.5854 101.361 32.9023C101.634 32.2202 101.902 31.5721 102.168 30.9582C102.433 30.3453 102.708 29.7456 102.994 29.1602H104.796C105.073 29.7456 105.348 30.3453 105.617 30.9582C105.886 31.5721 106.157 32.2202 106.431 32.9023C106.704 33.5854 106.984 34.3125 107.27 35.0847C107.555 35.8568 107.857 36.6982 108.176 37.6076H106.14L106.138 37.6065ZM103.854 31.0724C103.811 31.1954 103.75 31.3613 103.667 31.5732C103.586 31.7841 103.493 32.028 103.388 32.3047C103.284 32.5815 103.167 32.8858 103.038 33.2186C102.908 33.5514 102.778 33.9007 102.645 34.2653H105.061C104.931 33.8996 104.806 33.5492 104.685 33.2153C104.565 32.8814 104.449 32.576 104.34 32.2993C104.232 32.0225 104.136 31.7786 104.054 31.5678C103.971 31.3569 103.906 31.191 103.854 31.0713V31.0724Z" fill="#0F51FD"/>
<path d="M117 33.3767C117 33.9698 116.928 34.5036 116.781 34.9792C116.635 35.4548 116.43 35.8711 116.165 36.2291C115.902 36.5872 115.585 36.8837 115.221 37.1188C114.855 37.3538 114.453 37.5252 114.014 37.6306C114.054 37.7932 114.143 37.925 114.282 38.0271C114.42 38.1293 114.595 38.2116 114.807 38.2775C115.018 38.3423 115.264 38.3907 115.544 38.4236C115.825 38.4555 116.127 38.484 116.452 38.5082L116.062 39.8976C115.427 39.8735 114.886 39.8097 114.434 39.7087C113.983 39.6066 113.601 39.4671 113.289 39.288C112.976 39.109 112.727 38.8893 112.545 38.6301C112.362 38.3698 112.222 38.0689 112.124 37.7284C111.62 37.6636 111.154 37.523 110.723 37.3077C110.292 37.0924 109.918 36.8014 109.602 36.4367C109.285 36.0709 109.037 35.6316 108.858 35.1198C108.679 34.6079 108.59 34.0269 108.59 33.3767C108.59 32.6529 108.704 32.018 108.932 31.4688C109.16 30.9208 109.466 30.4595 109.852 30.0849C110.237 29.7115 110.685 29.4303 111.192 29.2436C111.699 29.0569 112.234 28.9635 112.796 28.9635C113.357 28.9635 113.917 29.0569 114.429 29.2436C114.941 29.4303 115.388 29.7104 115.77 30.0849C116.151 30.4584 116.452 30.9197 116.672 31.4688C116.89 32.0169 117 32.6529 117 33.3767ZM110.552 33.3767C110.552 33.7908 110.602 34.1653 110.704 34.4981C110.805 34.832 110.951 35.1176 111.143 35.3581C111.334 35.5987 111.568 35.7832 111.843 35.9128C112.119 36.0435 112.436 36.1083 112.793 36.1083C113.15 36.1083 113.458 36.0435 113.738 35.9128C114.018 35.7832 114.253 35.5976 114.444 35.3581C114.635 35.1187 114.781 34.832 114.884 34.4981C114.985 34.1653 115.036 33.7908 115.036 33.3767C115.036 32.9626 114.986 32.5859 114.884 32.2487C114.781 31.9115 114.635 31.6226 114.444 31.3832C114.253 31.1437 114.018 30.9581 113.738 30.8285C113.457 30.6989 113.143 30.6341 112.793 30.6341C112.444 30.6341 112.119 30.7011 111.843 30.8351C111.567 30.9691 111.334 31.1569 111.143 31.3964C110.951 31.6369 110.805 31.9247 110.704 32.2619C110.602 32.5991 110.552 32.9714 110.552 33.3778V33.3767Z" fill="#0F51FD"/>
<path d="M18.8423 10.3244C17.1003 8.58572 15.7428 10.0213 16.3029 11.8863C16.7708 13.1153 17.7484 14.1038 18.3536 15.2604C18.8335 16.1775 19.151 16.3687 18.8423 17.3001C18.2273 19.1541 15.7538 21.956 9.70402 28.3429C9.53048 28.5263 9.97422 28.0694 8.67267 29.3995C8.49144 29.5852 8.48924 29.8883 8.67047 30.075C9.5173 30.9471 10.8837 32.5826 11.1209 32.7945L12.1709 33.9797C12.3774 34.1642 12.6948 34.1257 12.8541 33.8973L13.9008 32.7945C13.9008 32.7945 15.9295 30.4111 16.8093 29.3424C19.3476 26.2549 23.8893 20.918 22.8964 15.8107C22.3549 13.6327 20.469 11.6798 18.8434 10.3244H18.8423Z" fill="#0F51FD"/>
<path d="M9.04632 16.2163C8.98822 16.271 9.0977 16.1571 9.04632 16.2163V16.2163Z" fill="#0F51FD"/>
<path d="M5.2525 13.8855C5.21898 13.919 5.28936 13.8565 5.2525 13.8855V13.8855Z" fill="#0F51FD"/>
<path d="M22.859 13.49C22.1626 12.3818 21.2235 11.446 20.5228 10.7408C19.9329 10.1477 19.7693 9.85116 18.8423 9.22949C18.2678 8.84397 17.6066 8.60892 16.9893 8.60892C16.3721 8.60892 15.4451 9.4898 15.4451 10.4717C15.4451 10.8854 15.4959 11.3043 15.5977 11.7282C15.9712 13.2879 17.0728 14.6916 17.9164 16.0591C18.1239 16.3963 18.1196 16.6126 18.0317 16.8422C17.8252 17.3848 17.522 17.8845 17.1805 18.3535L16.6302 19.1081C16.0151 19.9516 15.3462 20.7523 14.6246 21.508C12.6893 23.5334 9.27231 27.058 8.79343 27.6522C8.51554 27.9982 8.23876 28.3562 7.91255 28.4782C7.65883 28.5726 7.0778 28.3727 6.73731 28.0652C6.22987 27.6061 6.15737 27.058 6.17934 26.3023C6.18813 25.986 6.58024 25.2226 6.73731 24.9843C7.98064 23.0973 9.26791 21.9572 10.8122 20.0944C11.6513 19.0828 12.9309 18.0328 13.8579 17.1014C13.9403 17.019 13.9008 16.3699 13.2835 16.6807C13.2802 16.6829 13.2736 16.6873 13.2692 16.6895C13.2637 16.6961 13.1759 16.7477 13.1759 16.7477C13.1759 16.7477 12.2467 17.5012 11.581 18.1196C11.2911 18.3964 11.0099 18.6589 10.8122 18.8533C9.2141 20.4316 6.47919 23.7333 6.05633 24.2275C5.82128 24.5021 5.58843 24.7866 5.30066 24.8942C5.07769 24.9777 4.55048 24.8525 4.23416 24.6339C3.76296 24.3088 3.83655 23.4323 4.01778 22.8875C4.32642 21.9561 4.94479 21.0247 4.94479 21.0247C5.0722 20.7809 5.21828 20.5447 5.38633 20.3262C6.51214 18.8621 7.72363 17.6627 8.99223 16.2787C9.02079 16.248 9.03726 16.2293 9.04824 16.2161C9.08888 16.1777 9.213 16.0558 9.54031 15.7274L10.4673 14.796C10.8133 14.506 10.4278 13.9733 10.0159 14.2786C8.03336 15.7471 5.36546 18.7171 3.71024 21.0236C3.19951 21.7354 2.21318 21.6409 1.76835 20.8292C1.43225 20.2163 1.81119 19.1399 2.21868 18.5798C4.01888 16.1052 4.46811 15.6549 5.56426 14.506L5.8729 14.1952C6.18154 13.8843 5.70046 13.4527 5.25563 13.8843C3.71134 15.1255 2.69097 16.8762 1.76945 17.9032C1.27299 18.4568 0.931405 18.2294 0.596406 17.7154C0.326211 17.3079 -0.00878684 15.1101 0.00109835 14.506C0.00439342 14.2786 -0.00219671 14.0699 0.00329506 13.6943C0.00329506 13.6657 0.00768848 13.6394 0.0142786 13.613C0.00878683 13.6097 0 13.8854 0 13.8854C0 13.8854 0 13.8645 0 13.8272C0.0109835 11.9886 0.438243 10.0071 1.3356 8.40133C3.42467 4.66034 6.64504 1.74531 11.5371 1.52014C11.9248 1.4817 12.5904 1.46413 12.9738 1.47072C12.9847 1.47072 12.4048 1.47072 12.4158 1.47072H13.2297C13.3296 1.47072 12.8112 1.47072 12.9112 1.47072H12.9463C14.3401 1.46523 16.4028 1.67831 18.6468 2.84036C18.7621 2.90077 18.8796 2.96338 19.0059 3.03477C19.0059 3.03477 23.1632 5.41271 24.8283 10.8913C24.9381 11.2549 25.3281 12.3323 25.3281 14.506C25.3281 14.5972 25.2929 14.9948 25.2523 15.3254C25.2237 15.5626 25.1721 15.7966 25.1007 16.0239C24.9491 16.4973 24.6295 17.4617 24.4021 17.9208C24.0935 18.5413 23.7849 18.5413 23.7849 18.5413C23.7849 18.5413 23.4762 18.5413 23.474 18.4315C23.4718 18.3052 23.5959 17.8867 23.6882 17.4386C23.8398 16.4578 23.7552 15.4495 23.3982 14.5214C23.3477 14.3907 23.2939 14.2665 23.2346 14.1479C23.1259 13.9294 23.0028 13.7185 22.8732 13.512L22.859 13.49Z" fill="#0F51FD"/>
<path d="M29.9159 2.80301C30.2092 2.72942 30.5958 2.65144 31.0769 2.56906C31.5579 2.48668 32.1148 2.44495 32.7464 2.44495C33.2044 2.44495 33.5888 2.50645 33.9007 2.63057C34.2116 2.75468 34.473 2.93481 34.6838 3.17315C34.7476 3.12702 34.8486 3.06332 34.9859 2.98094C35.1232 2.89857 35.2934 2.81839 35.4944 2.7404C35.6954 2.66242 35.9206 2.59432 36.1677 2.53391C36.4149 2.4746 36.6807 2.44385 36.9651 2.44385C37.5143 2.44385 37.9635 2.52403 38.3117 2.68439C38.6599 2.84475 38.9323 3.07101 39.13 3.36427C39.3266 3.65753 39.4606 4.00571 39.5287 4.4088C39.5979 4.8119 39.6319 5.25124 39.6319 5.72793V9.74131H38.3534V6.00581C38.3534 5.58514 38.3337 5.22268 38.2919 4.91954C38.2513 4.61749 38.1733 4.36487 38.058 4.16387C37.9438 3.96287 37.7878 3.8135 37.5912 3.71684C37.3935 3.62019 37.1398 3.57296 36.8278 3.57296C36.3973 3.57296 36.0414 3.63007 35.7624 3.7443C35.4835 3.85853 35.2934 3.96177 35.1924 4.05404C35.2649 4.29238 35.3198 4.55379 35.3571 4.83716C35.3945 5.12164 35.4121 5.41929 35.4121 5.73012V9.74351H34.1347V6.00581C34.1347 5.58514 34.1116 5.22268 34.0655 4.91954C34.0193 4.61749 33.9392 4.36487 33.8249 4.16387C33.7107 3.96287 33.5547 3.8135 33.357 3.71684C33.1604 3.62019 32.9111 3.57296 32.6091 3.57296C32.4806 3.57296 32.3433 3.57735 32.1961 3.58723C32.0489 3.59712 31.9094 3.6081 31.7776 3.62128C31.6447 3.63556 31.5228 3.65094 31.4129 3.66961C31.3031 3.68828 31.2295 3.70146 31.1922 3.71025V9.74351H29.9148V2.80301H29.9159Z" fill="#282525"/>
<path d="M71.5777 2.65253C71.5777 2.98203 71.5107 3.30055 71.3778 3.60809C71.2449 3.91563 71.068 4.21768 70.8495 4.51533C70.6287 4.81299 70.3816 5.10625 70.107 5.39512C69.8313 5.68398 69.5578 5.96516 69.2821 6.24085C69.1261 6.39682 68.946 6.57914 68.7395 6.79003C68.533 7.00091 68.3386 7.22058 68.1552 7.44904C67.9729 7.6786 67.8191 7.89827 67.695 8.10915C67.5709 8.32003 67.5094 8.50346 67.5094 8.65833H71.8929V9.7446H66.121C66.1123 9.68968 66.1079 9.63476 66.1079 9.57985V9.42827C66.1079 8.99772 66.1793 8.59682 66.3209 8.22558C66.4626 7.85433 66.6483 7.50396 66.8778 7.17445C67.1074 6.84494 67.3633 6.53301 67.6478 6.23975C67.9311 5.94649 68.2112 5.66202 68.4858 5.38743C68.7154 5.16776 68.9328 4.95028 69.1393 4.73501C69.3447 4.51973 69.5281 4.30445 69.6885 4.08917C69.8489 3.8739 69.9774 3.65203 70.0729 3.42247C70.1696 3.19401 70.2179 2.95018 70.2179 2.69426C70.2179 2.41967 70.174 2.18572 70.0872 1.99351C70.0004 1.8013 69.884 1.64094 69.7368 1.51243C69.5896 1.38393 69.4183 1.29057 69.2217 1.23016C69.0251 1.17085 68.8164 1.14119 68.5967 1.14119C68.3309 1.14119 68.0893 1.17744 67.8685 1.25103C67.6489 1.32462 67.4512 1.40919 67.2776 1.50584C67.103 1.6025 66.9569 1.70245 66.8383 1.80789C66.7186 1.91333 66.6274 1.99351 66.5626 2.04843L65.931 1.14119C66.0134 1.04893 66.1364 0.936896 66.3023 0.803995C66.467 0.671094 66.6636 0.544784 66.8932 0.426161C67.1216 0.307539 67.3787 0.206491 67.662 0.124114C67.9465 0.0417375 68.2529 0 68.5836 0C69.582 0 70.3299 0.231753 70.8297 0.69416C71.3294 1.15657 71.5788 1.81009 71.5788 2.65253H71.5777Z" fill="#282525"/>
<path d="M47.3775 6.2375C47.3775 6.78008 47.2984 7.26885 47.1414 7.706C46.9843 8.14314 46.7636 8.51878 46.4791 8.83401C46.1946 9.14923 45.8563 9.39087 45.4631 9.56221C45.0699 9.73246 44.6415 9.81813 44.178 9.81813C43.7145 9.81813 43.2862 9.73246 42.893 9.56221C42.4997 9.39197 42.1603 9.14923 41.877 8.83401C41.5925 8.51878 41.3717 8.14314 41.2147 7.706C41.0576 7.26885 40.9785 6.77898 40.9785 6.2375C40.9785 5.69601 41.0576 5.21712 41.2147 4.77559C41.3717 4.33405 41.5925 3.95621 41.877 3.64099C42.1614 3.32576 42.4997 3.08412 42.893 2.91278C43.2862 2.74253 43.7145 2.65686 44.178 2.65686C44.6415 2.65686 45.0699 2.74253 45.4631 2.91278C45.8563 3.08302 46.1957 3.32576 46.4791 3.64099C46.7636 3.95621 46.9843 4.33405 47.1414 4.77559C47.2984 5.21712 47.3775 5.70479 47.3775 6.2375ZM46.1056 6.2375C46.1056 5.46865 45.9332 4.85796 45.5872 4.40764C45.2412 3.95731 44.7722 3.73215 44.1769 3.73215C43.5816 3.73215 43.1126 3.95731 42.7666 4.40764C42.4207 4.85796 42.2482 5.46755 42.2482 6.2375C42.2482 7.00744 42.4207 7.61703 42.7666 8.06735C43.1115 8.51768 43.5816 8.74284 44.1769 8.74284C44.7722 8.74284 45.2412 8.51768 45.5872 8.06735C45.9321 7.61703 46.1056 7.00744 46.1056 6.2375Z" fill="#282525"/>
<path d="M54.8913 2.82837C54.5508 4.10466 54.1499 5.32932 53.6919 6.50017C53.2327 7.67211 52.789 8.72104 52.3606 9.64805H51.259C50.8306 8.72104 50.3869 7.67211 49.9278 6.50017C49.4687 5.32822 49.0689 4.10466 48.7284 2.82837H50.0398C50.1453 3.25673 50.2694 3.71364 50.4133 4.19912C50.5572 4.68459 50.7098 5.16567 50.8724 5.64125C51.0338 6.11794 51.1975 6.57925 51.3644 7.02518C51.5303 7.47111 51.6874 7.86872 51.8367 8.21909C51.985 7.86982 52.1432 7.47111 52.309 7.02518C52.4749 6.57925 52.6385 6.11794 52.8011 5.64125C52.9625 5.16457 53.1163 4.68349 53.2602 4.19912C53.4041 3.71364 53.5293 3.25673 53.6336 2.82837H54.8924H54.8913Z" fill="#282525"/>
<path d="M56.2423 6.2508C56.2423 5.6478 56.3291 5.12059 56.5048 4.67027C56.6795 4.21994 56.9112 3.8465 57.2001 3.54885C57.4889 3.25119 57.8206 3.02823 58.1963 2.87995C58.5719 2.73167 58.9574 2.65698 59.3507 2.65698C60.2689 2.65698 60.9718 2.94365 61.4617 3.5159C61.9516 4.08814 62.1965 4.96023 62.1965 6.13218V6.33537C62.1965 6.41885 62.1921 6.49463 62.1833 6.56493H57.5142C57.5669 7.27337 57.7723 7.81046 58.1304 8.17841C58.4884 8.54526 59.0486 8.72978 59.8087 8.72978C60.237 8.72978 60.5973 8.69244 60.8905 8.61775C61.1838 8.54306 61.4046 8.47167 61.5529 8.40137L61.7231 9.42394C61.5748 9.50303 61.3145 9.5854 60.9433 9.67327C60.572 9.76004 60.1503 9.80397 59.678 9.80397C59.0838 9.80397 58.5697 9.71391 58.137 9.53488C57.7042 9.35584 57.3484 9.10872 57.0683 8.79349C56.7882 8.47826 56.5806 8.10482 56.4455 7.67207C56.3093 7.23932 56.2423 6.76483 56.2423 6.2497V6.2508ZM60.9246 5.5819C60.9334 5.03053 60.795 4.5791 60.5116 4.22433C60.2271 3.87066 59.8361 3.69273 59.3375 3.69273C59.0574 3.69273 58.8103 3.74765 58.5961 3.85639C58.3819 3.96622 58.2007 4.10791 58.0513 4.28255C57.903 4.45719 57.7866 4.65818 57.7042 4.88554C57.6207 5.1129 57.5669 5.34466 57.5406 5.5808H60.9246V5.5819Z" fill="#282525"/>
<path d="M35.6614 23.5993C35.5625 23.2907 35.4571 22.9744 35.3428 22.6503C35.2297 22.3252 35.1166 22.0023 35.0034 21.6805H31.5403C31.4283 22.0034 31.3163 22.3285 31.2031 22.6536C31.0911 22.9787 30.9857 23.294 30.889 23.6004H28.8164C29.1503 22.6448 29.4666 21.7618 29.7665 20.9523C30.0663 20.1417 30.3585 19.3783 30.6452 18.6622C30.9318 17.9461 31.2141 17.2651 31.492 16.6215C31.7699 15.9778 32.0587 15.3485 32.3586 14.7345H34.2511C34.5421 15.3485 34.8299 15.9778 35.1122 16.6215C35.3945 17.2662 35.68 17.9461 35.9667 18.6622C36.2534 19.3783 36.5477 20.1417 36.8476 20.9523C37.1474 21.7629 37.4648 22.6459 37.7987 23.6004H35.6614V23.5993ZM33.2636 16.7412C33.2186 16.8697 33.1538 17.0454 33.0681 17.2673C32.9825 17.4892 32.8847 17.7451 32.7749 18.0351C32.665 18.3261 32.5431 18.6457 32.4069 18.995C32.2718 19.3443 32.1345 19.7111 31.9939 20.0934H34.53C34.3938 19.7089 34.2631 19.341 34.1357 18.9917C34.0083 18.6413 33.8875 18.3206 33.7733 18.0307C33.6591 17.7407 33.558 17.4848 33.4723 17.2629C33.3856 17.0421 33.3164 16.8675 33.2636 16.7423V16.7412Z" fill="#282525"/>
<path d="M42.1756 14.6301C43.5068 14.6301 44.525 14.8674 45.2334 15.3408C45.9419 15.8142 46.2955 16.5501 46.2955 17.5485C46.2955 18.1712 46.1528 18.6765 45.8672 19.0642C45.5816 19.453 45.1697 19.7572 44.6326 19.9791C44.8117 20.201 44.9995 20.4547 45.1961 20.7403C45.3927 21.0258 45.586 21.3246 45.7782 21.6354C45.9704 21.9474 46.156 22.2714 46.3351 22.6075C46.5141 22.9447 46.68 23.2753 46.8337 23.5993H44.6019C44.4393 23.3093 44.2746 23.015 44.1076 22.7162C43.9407 22.4175 43.7693 22.1275 43.5936 21.8463C43.4179 21.5651 43.2443 21.2982 43.073 21.0467C42.9016 20.7952 42.7303 20.5667 42.5589 20.3624H41.5737V23.5993H39.578V14.8597C40.013 14.774 40.4633 14.7147 40.9279 14.6807C41.3925 14.6466 41.8088 14.629 42.1756 14.629V14.6301ZM42.2909 16.3315C42.146 16.3315 42.0164 16.3359 41.901 16.3447C41.7857 16.3534 41.677 16.3622 41.5748 16.3699V18.7753H42.1383C42.8884 18.7753 43.4266 18.682 43.7507 18.4941C44.0747 18.3063 44.2372 17.9867 44.2372 17.5342C44.2372 17.0817 44.0725 16.7895 43.7441 16.6061C43.4157 16.4226 42.9313 16.3315 42.292 16.3315H42.2909Z" fill="#282525"/>
<path d="M51.1063 14.7323C51.26 15.0135 51.438 15.3617 51.639 15.7746C51.84 16.1887 52.0498 16.6357 52.2672 17.1179C52.4858 17.6001 52.7011 18.0922 52.9153 18.5952C53.1294 19.0983 53.3293 19.5716 53.5183 20.0154C53.7061 19.5716 53.9071 19.0983 54.1213 18.5952C54.3354 18.0922 54.5507 17.599 54.7693 17.1179C54.9879 16.6357 55.1965 16.1887 55.3975 15.7746C55.5985 15.3606 55.7765 15.0135 55.9302 14.7323H57.7469C57.8326 15.321 57.9106 15.98 57.9842 16.7093C58.0567 17.4386 58.1204 18.1976 58.1764 18.9873C58.2313 19.7759 58.2829 20.5679 58.3302 21.3609C58.3774 22.1539 58.418 22.9008 58.4521 23.6004H56.5069C56.4816 22.7393 56.4476 21.8002 56.4047 20.7853C56.3619 19.7705 56.2982 18.7468 56.2125 17.7143C56.0588 18.0724 55.8874 18.4689 55.6996 18.9038C55.5118 19.3388 55.3251 19.7737 55.1416 20.2087C54.9582 20.6436 54.7803 21.0599 54.6089 21.4564C54.4376 21.8529 54.2926 22.1923 54.1729 22.4735H52.778C52.6583 22.1923 52.5122 21.8529 52.3419 21.4564C52.1706 21.0599 51.9926 20.6436 51.8092 20.2087C51.6258 19.7737 51.4391 19.3388 51.2513 18.9038C51.0634 18.4689 50.8921 18.0724 50.7383 17.7143C50.6527 18.7468 50.5889 19.7705 50.5461 20.7853C50.5033 21.8002 50.4692 22.7393 50.444 23.6004H48.4988C48.5328 22.9008 48.5735 22.155 48.6207 21.3609C48.6679 20.5679 48.7185 19.7759 48.7745 18.9873C48.8294 18.1987 48.8942 17.4386 48.9667 16.7093C49.0392 15.98 49.1183 15.321 49.2039 14.7323H51.1107H51.1063Z" fill="#282525"/>
<path d="M60.8685 23.5993V14.7323H66.8568V16.4084H62.8642V18.1482H66.4086V19.7858H62.8642V21.9232H67.1511V23.5993H60.8685Z" fill="#282525"/>
<path d="M75.212 23.5993C74.6408 22.5844 74.0225 21.5816 73.3569 20.592C72.6913 19.6024 71.9839 18.6688 71.2327 17.7901V23.5993H69.2622V14.7323H70.8867C71.1678 15.0135 71.4798 15.3595 71.8203 15.7691C72.1619 16.1788 72.5089 16.616 72.8626 17.0806C73.2163 17.5452 73.5688 18.0274 73.9181 18.526C74.2674 19.0247 74.5958 19.5046 74.9034 19.966V14.7323H76.887V23.5993H75.2109H75.212Z" fill="#282525"/>
<path d="M79.5757 14.7323H81.5714V23.5993H79.5757V14.7323Z" fill="#282525"/>
<path d="M90.2077 23.5993C90.1089 23.2907 90.0034 22.9744 89.8892 22.6503C89.7761 22.3252 89.663 22.0023 89.5498 21.6805H86.0867C85.9747 22.0034 85.8627 22.3285 85.7495 22.6536C85.6375 22.9787 85.532 23.294 85.4354 23.6004H83.3628C83.6967 22.6448 84.013 21.7618 84.3129 20.9523C84.6127 20.1417 84.9049 19.3783 85.1916 18.6622C85.4782 17.9461 85.7605 17.2651 86.0384 16.6215C86.3163 15.9778 86.6051 15.3485 86.905 14.7345H88.7975C89.0885 15.3485 89.3763 15.9778 89.6586 16.6215C89.9408 17.2662 90.2264 17.9461 90.5131 18.6622C90.7998 19.3783 91.0941 20.1417 91.394 20.9523C91.6938 21.7629 92.0112 22.6459 92.3451 23.6004H90.2077V23.5993ZM87.81 16.7412C87.765 16.8697 87.7002 17.0454 87.6145 17.2673C87.5289 17.4892 87.4311 17.7451 87.3213 18.0351C87.2114 18.3261 87.0895 18.6457 86.9533 18.995C86.8171 19.3443 86.6809 19.7111 86.5403 20.0934H89.0764C88.9402 19.7089 88.8095 19.341 88.6821 18.9917C88.5547 18.6413 88.4339 18.3206 88.3197 18.0307C88.2054 17.7407 88.1044 17.4848 88.0187 17.2629C87.9319 17.0421 87.8628 16.8675 87.81 16.7423V16.7412Z" fill="#282525"/>
</svg>
