<svg width="150" height="44" viewBox="0 0 150 44" fill="none" xmlns="http://www.w3.org/2000/svg">
    <g clip-path="url(#clip0_2890_3977)">
        <mask id="mask0_2890_3977" style="mask-type:luminance" maskUnits="userSpaceOnUse" x="0" y="0" width="150" height="44">
            <path d="M150 0.75H0V43.25H150V0.75Z" fill="white"/>
        </mask>
        <g mask="url(#mask0_2890_3977)">
            <path d="M27.7998 12.2803C25.5318 10.0163 23.7643 11.8848 24.4933 14.3138C25.1018 15.9138 26.3748 17.2008 27.1638 18.7068C27.7888 19.9013 28.2023 20.1508 27.7998 21.3628C26.9998 23.7773 23.7783 27.4253 15.8998 35.7418C15.6733 35.9808 16.2498 35.3853 14.5568 37.1183C14.4428 37.2361 14.3788 37.3935 14.3782 37.5574C14.3775 37.7213 14.4403 37.8791 14.5533 37.9978C15.6533 39.1333 17.4348 41.2623 17.7443 41.5378L19.1113 43.0813C19.1745 43.1379 19.249 43.1804 19.33 43.2059C19.4109 43.2315 19.4963 43.2394 19.5805 43.2293C19.6648 43.2192 19.7459 43.1912 19.8184 43.1472C19.891 43.1032 19.9533 43.0443 20.0013 42.9743L21.3638 41.5378C21.3638 41.5378 24.0053 38.4378 25.1503 37.0428C28.4548 33.0223 34.3693 26.0728 33.0758 19.4233C32.3723 16.5878 29.9168 14.0443 27.7998 12.2803Z" fill="#F89934"/>
            <path d="M15.0454 19.9524C14.9709 20.0224 15.1114 19.8774 15.0454 19.9524V19.9524Z" fill="#F89934"/>
            <path d="M10.1044 16.9175C10.0624 16.9605 10.1514 16.88 10.1044 16.9175V16.9175Z" fill="#F89934"/>
            <path d="M33.0304 16.4023C32.1234 14.9598 30.9009 13.7403 29.9874 12.8223C29.2194 12.0508 29.0064 11.6633 27.7999 10.8553C27.0499 10.3553 26.1914 10.0468 25.3869 10.0468C24.5824 10.0468 23.3764 11.1938 23.3764 12.4718C23.3764 13.2803 23.3764 13.2803 23.5764 14.1073C24.0629 16.1378 25.4974 17.9658 26.5954 19.7463C26.8664 20.1858 26.8599 20.4678 26.7454 20.7668C26.4764 21.4728 26.0814 22.1243 25.6369 22.7348L24.9204 23.7178C24.1204 24.8159 23.2481 25.8595 22.3094 26.8418C19.7899 29.4798 15.3399 34.0683 14.7164 34.8418C14.3544 35.2918 13.9949 35.7583 13.5694 35.9168C13.2389 36.0403 12.4819 35.7793 12.0389 35.3783C11.3779 34.7783 11.2844 34.0673 11.3124 33.0833C11.3244 32.6718 11.8349 31.6768 12.0389 31.3673C13.6579 28.9108 15.3344 27.4253 17.3449 25.0003C18.4374 23.6833 20.1044 22.3153 21.3109 21.1003C21.4179 20.9928 21.3669 20.1503 20.5609 20.5503C20.5559 20.5528 20.5474 20.5588 20.5424 20.5618C20.5374 20.5648 20.4214 20.6373 20.4214 20.6373C20.4214 20.6373 19.2114 21.6183 18.3439 22.4233C17.9664 22.7838 17.6009 23.1233 17.3439 23.3793C15.2629 25.4348 11.7024 29.7338 11.1514 30.3793C10.8449 30.7378 10.5414 31.1078 10.1674 31.2478C9.8764 31.3568 9.1899 31.1933 8.7784 30.9093C8.1644 30.4858 8.2609 29.3453 8.4964 28.6353C8.8964 27.4228 9.7029 26.2103 9.7029 26.2103C9.86795 25.8912 10.0604 25.5871 10.2779 25.3013C11.7439 23.3953 13.3209 21.8338 14.9729 20.0308C15.0099 19.9903 15.0319 19.9658 15.0459 19.9498C15.0989 19.8998 15.2609 19.7413 15.6864 19.3133L16.8929 18.1008C17.3429 17.7233 16.8429 17.0303 16.3054 17.4278C13.7239 19.3423 10.2499 23.2098 8.0939 26.2128C7.4284 27.1398 6.1439 27.0168 5.5649 25.9593C5.1269 25.1593 5.6199 23.7593 6.1509 23.0298C8.4944 19.8073 9.0804 19.2213 10.5069 17.7258L10.9069 17.3213C11.3069 16.9173 10.6819 16.3553 10.1024 16.9173C8.0919 18.5338 6.7624 20.8128 5.5629 22.1508C4.91691 22.8708 4.47241 22.5753 4.03541 21.9058C3.68891 21.3743 3.25291 18.5113 3.26591 17.7258C3.27091 17.4298 3.26141 17.1573 3.26891 16.6688C3.26955 16.6331 3.27459 16.5977 3.28391 16.5633C3.27691 16.5593 3.26591 16.9173 3.26591 16.9173V16.8413C3.28091 14.4468 3.83741 11.8673 5.0044 9.77626C7.7229 4.90626 11.9169 1.10925 18.2869 0.815753C18.7909 0.765753 19.6584 0.743257 20.1569 0.751757C20.1709 0.751757 19.4159 0.751757 19.4299 0.751757H20.4894C20.6189 0.751757 19.9444 0.751757 20.0749 0.751757H20.1214C22.7041 0.732589 25.2524 1.34485 27.5444 2.53526C27.6944 2.61326 27.8469 2.69526 28.0124 2.78826C28.0124 2.78826 33.4254 5.88426 35.5929 13.0193C35.7369 13.4918 36.2429 14.8963 36.2429 17.7253C36.2429 17.8443 36.1964 18.3618 36.1429 18.7918C36.1044 19.1004 36.0374 19.4049 35.9429 19.7013C35.7429 20.3173 35.3294 21.5738 35.0324 22.1708C34.6324 22.9793 34.2284 22.9793 34.2284 22.9793C34.2284 22.9793 33.8259 22.9793 33.8229 22.8358C33.8199 22.6708 33.9819 22.1263 34.1024 21.5433C34.2989 20.2663 34.1899 18.9533 33.7254 17.7433C33.6594 17.5723 33.5889 17.4108 33.5124 17.2563C33.3709 16.9718 33.2124 16.6973 33.0419 16.4283L33.0304 16.4023Z" fill="#F89934"/>
            <path d="M43.8398 4.60014C44.3231 4.47934 44.9573 4.35099 45.7425 4.21508C46.5428 4.07918 47.4639 4.01123 48.5058 4.01123C49.2609 4.01123 49.8951 4.11693 50.4084 4.32834C50.9219 4.52464 51.3524 4.8191 51.6994 5.21171C51.8054 5.13621 51.9714 5.0305 52.1979 4.8946C52.4244 4.7587 52.7039 4.63034 53.0359 4.50954C53.3684 4.37364 53.7379 4.26039 54.1459 4.16978C54.5534 4.06408 54.9914 4.01123 55.4594 4.01123C56.3654 4.01123 57.1054 4.14713 57.6794 4.41894C58.2529 4.67564 58.6984 5.0456 59.0159 5.52881C59.3479 6.01203 59.5669 6.58583 59.6724 7.25023C59.7934 7.91468 59.8539 8.63948 59.8539 9.42468V16.0386H57.7474V9.87773C57.7474 9.18308 57.7094 8.58663 57.6339 8.08833C57.5734 7.59003 57.4454 7.17473 57.2489 6.84253C57.0679 6.51033 56.8109 6.26873 56.4789 6.11773C56.1619 5.95163 55.7464 5.86858 55.2329 5.86858C54.5234 5.86858 53.9344 5.96673 53.4664 6.16303C53.0134 6.34423 52.7039 6.51033 52.5379 6.66133C52.6584 7.05393 52.7489 7.48428 52.8094 7.95243C52.8699 8.42053 52.8999 8.91128 52.8999 9.42468V16.0386H50.7934V9.87773C50.7934 9.18308 50.7559 8.58663 50.6804 8.08833C50.6049 7.59003 50.4689 7.17473 50.2724 6.84253C50.0914 6.51033 49.8347 6.26873 49.5025 6.11773C49.1854 5.95163 48.7777 5.86858 48.2793 5.86858C48.0679 5.86858 47.8414 5.87613 47.5998 5.89123C47.3582 5.90633 47.1242 5.92898 46.8977 5.95918C46.6863 5.97428 46.49 5.99693 46.3087 6.02713C46.1275 6.05733 46.0067 6.07998 45.9463 6.09508V16.0386H43.8398V4.60014Z" fill="white"/>
            <path d="M112.528 5.91208C112.528 6.45568 112.415 6.98418 112.188 7.49763C111.976 7.99593 111.69 8.49423 111.328 8.99253C110.965 9.47573 110.557 9.95898 110.104 10.4422C109.651 10.9103 109.198 11.3708 108.745 11.8238C108.488 12.0806 108.187 12.3826 107.839 12.7299C107.507 13.0772 107.19 13.4396 106.888 13.8171C106.586 14.1946 106.329 14.557 106.118 14.9043C105.922 15.2516 105.823 15.5536 105.823 15.8103H113.048V17.5997H103.535C103.52 17.5091 103.513 17.4185 103.513 17.3279C103.513 17.2373 103.513 17.1543 103.513 17.0788C103.513 16.369 103.626 15.7122 103.853 15.1082C104.094 14.4891 104.404 13.9077 104.781 13.3641C105.159 12.8205 105.581 12.3071 106.049 11.8238C106.518 11.3406 106.978 10.8725 107.431 10.4195C107.809 10.0571 108.164 9.70228 108.496 9.35493C108.843 8.99253 109.146 8.63768 109.402 8.29038C109.674 7.92798 109.885 7.55803 110.036 7.18048C110.202 6.80298 110.285 6.40283 110.285 5.98003C110.285 5.52702 110.21 5.14196 110.059 4.82485C109.923 4.50774 109.734 4.24349 109.493 4.03208C109.251 3.82068 108.964 3.66967 108.632 3.57907C108.315 3.47337 107.975 3.42052 107.612 3.42052C107.174 3.42052 106.774 3.48092 106.412 3.60172C106.049 3.72253 105.725 3.86598 105.438 4.03208C105.152 4.18309 104.91 4.34919 104.714 4.53039C104.517 4.6965 104.366 4.82485 104.26 4.91545L103.219 3.42052C103.355 3.26951 103.558 3.08831 103.83 2.87691C104.102 2.6504 104.427 2.439 104.804 2.24269C105.182 2.04639 105.604 1.88028 106.072 1.74438C106.54 1.60848 107.047 1.54053 107.59 1.54053C109.236 1.54053 110.466 1.92558 111.282 2.6957C112.112 3.45072 112.528 4.52284 112.528 5.91208Z" fill="white"/>
            <path d="M72.6183 11.4611C72.6183 12.3551 72.4883 13.1621 72.2288 13.8821C71.9903 14.5673 71.6193 15.1989 71.1373 15.7411C70.6723 16.2575 70.1008 16.6669 69.4623 16.9411C68.7908 17.2193 68.0708 17.3626 67.3443 17.3626C66.6173 17.3626 65.8973 17.2193 65.2258 16.9411C64.5873 16.667 64.0158 16.2576 63.5508 15.7411C63.0683 15.1991 62.6973 14.5674 62.4593 13.8821C62.1998 13.1614 62.0698 12.3544 62.0703 11.4611C62.0703 10.5824 62.1998 9.77906 62.4593 9.05106C62.6963 8.36191 63.0673 7.72651 63.5508 7.18156C64.0158 6.66501 64.5873 6.25556 65.2258 5.98156C65.8973 5.70328 66.6173 5.56006 67.3443 5.56006C68.0708 5.56006 68.7908 5.70328 69.4623 5.98156C70.1008 6.25571 70.6723 6.66511 71.1373 7.18156C71.6208 7.72661 71.9918 8.36201 72.2288 9.05106C72.4883 9.77906 72.6183 10.5824 72.6183 11.4611ZM70.5213 11.4611C70.5213 10.1944 70.2368 9.18936 69.6678 8.44606C69.0988 7.70271 68.3243 7.33171 67.3443 7.33306C66.3638 7.33306 65.5893 7.70406 65.0208 8.44606C64.4523 9.18806 64.1678 10.1931 64.1668 11.4611C64.1668 12.7294 64.4513 13.7346 65.0208 14.4766C65.5903 15.2186 66.3648 15.5896 67.3443 15.5896C68.3238 15.5896 69.0983 15.2186 69.6678 14.4766C70.2373 13.7346 70.5218 12.7294 70.5213 11.4611Z" fill="white"/>
            <path d="M85.0035 5.8418C84.458 7.89395 83.7975 9.9138 83.0255 11.8918C82.269 13.8228 81.538 15.5519 80.832 17.0793H79.0165C78.31 15.5523 77.579 13.8231 76.8225 11.8918C76.0505 9.9138 75.39 7.89395 74.8445 5.8418H77.006C77.179 6.5478 77.3845 7.30065 77.622 8.1003C77.8595 8.89995 78.112 9.6926 78.3785 10.4783C78.645 11.2639 78.9155 12.0239 79.189 12.7583C79.4625 13.4926 79.722 14.1483 79.9675 14.7253C80.212 14.1493 80.4715 13.4936 80.7455 12.7583C81.0195 12.0229 81.2895 11.2629 81.556 10.4783C81.8225 9.6926 82.075 8.89995 82.3125 8.1003C82.55 7.30065 82.7555 6.5478 82.9285 5.8418H85.0035Z" fill="white"/>
            <path d="M87.2299 11.4831C87.2299 10.4884 87.3739 9.62006 87.6619 8.87806C87.9499 8.13606 88.3319 7.51936 88.8074 7.02806C89.2699 6.54791 89.8304 6.17276 90.4504 5.92806C91.0544 5.68611 91.6994 5.56139 92.3504 5.56055C93.8634 5.56055 95.0234 6.03236 95.8304 6.97606C96.6374 7.91971 97.0409 9.35721 97.0409 11.2886V11.6236C97.0414 11.7499 97.0339 11.8761 97.0194 12.0016H89.3244C89.4109 13.1682 89.7499 14.0544 90.3404 14.6601C90.9309 15.2657 91.8534 15.5684 93.1069 15.5681C93.8129 15.5681 94.4074 15.5069 94.8904 15.3846C95.3734 15.2622 95.7374 15.1432 95.9819 15.0276L96.2629 16.7136C96.0174 16.8436 95.5889 16.9804 94.9764 17.1241C94.3639 17.2677 93.6689 17.3399 92.8909 17.3406C91.9109 17.3406 91.0644 17.1929 90.3514 16.8976C89.6384 16.6022 89.0509 16.1951 88.5894 15.6761C88.1184 15.1401 87.7684 14.5091 87.5629 13.8261C87.3334 13.0665 87.2214 12.2764 87.2299 11.4831ZM94.9464 10.3806C94.9604 9.47256 94.7334 8.72686 94.2654 8.14356C93.7974 7.56021 93.1524 7.26836 92.3309 7.26806C91.8694 7.26806 91.4624 7.35806 91.1099 7.53806C90.7664 7.70921 90.4604 7.94716 90.2099 8.23806C89.9614 8.53271 89.7674 8.86956 89.6374 9.23256C89.5019 9.60216 89.4109 9.98676 89.3669 10.3781L94.9464 10.3806Z" fill="white"/>
            <path d="M53.3084 40.0764C53.1459 39.5684 52.9714 39.0469 52.7839 38.5119C52.5964 37.9769 52.4104 37.4436 52.2249 36.9119H46.5168C46.3321 37.4452 46.1473 37.9796 45.9623 38.5149C45.7773 39.0502 45.6046 39.5704 45.4443 40.0754H42.0278C42.5778 38.5011 43.0995 37.0459 43.5928 35.7099C44.0861 34.3739 44.5695 33.1156 45.0428 31.9349C45.5151 30.7539 45.9805 29.6327 46.4388 28.5714C46.8971 27.5101 47.3731 26.4732 47.8668 25.4609H50.9854C51.4659 26.4729 51.9389 27.5097 52.4049 28.5714C52.8709 29.6331 53.3404 30.7542 53.8139 31.9349C54.2874 33.1159 54.7709 34.3742 55.2639 35.7099C55.7569 37.0456 56.2794 38.5007 56.8314 40.0754L53.3084 40.0764ZM49.3558 28.7729C49.2828 28.9849 49.1755 29.2736 49.0338 29.6389C48.8921 30.0042 48.7308 30.4264 48.5498 30.9054C48.3695 31.3841 48.1676 31.9112 47.9443 32.4869C47.721 33.0626 47.4946 33.6669 47.2653 34.2999H51.4444C51.2209 33.6666 51.0039 33.0611 50.7944 32.4834C50.5849 31.9057 50.3864 31.3769 50.1999 30.8969C50.0109 30.4179 49.8453 29.9959 49.7033 29.6309C49.5613 29.2659 49.4455 28.9799 49.3558 28.7729Z" fill="white"/>
            <path d="M64.0444 25.293C66.2374 25.293 67.9174 25.6832 69.0844 26.4635C70.2514 27.2438 70.8349 28.4565 70.8344 30.1015C70.8344 31.1278 70.5989 31.9612 70.1279 32.6015C69.6569 33.2418 68.9789 33.7443 68.0929 34.109C68.3879 34.4757 68.6974 34.894 69.0209 35.364C69.3449 35.834 69.6644 36.326 69.9804 36.84C70.2964 37.3533 70.6024 37.8877 70.8979 38.443C71.1939 38.9983 71.4679 39.5432 71.7199 40.0775H68.0424C67.7744 39.5995 67.5024 39.1143 67.2274 38.622C66.9524 38.1297 66.6704 37.6518 66.3809 37.1885C66.0914 36.7245 65.8054 36.285 65.5234 35.87C65.2414 35.455 64.9594 35.079 64.6764 34.742H63.0524V40.0775H59.7629V25.673C60.4979 25.5301 61.2409 25.4314 61.9879 25.3775C62.7544 25.3215 63.4399 25.2933 64.0444 25.293ZM64.2339 28.098C63.9949 28.098 63.7804 28.105 63.5909 28.119L63.0529 28.161V32.126H63.9809C65.2179 32.126 66.1039 31.9713 66.6384 31.662C67.1734 31.3527 67.4399 30.8255 67.4384 30.0805C67.4384 29.3632 67.1679 28.8535 66.6264 28.5515C66.0854 28.2495 65.2879 28.099 64.2339 28.1V28.098Z" fill="white"/>
            <path d="M78.764 25.4619C79.018 25.9259 79.3105 26.4988 79.6415 27.1804C79.9725 27.8621 80.318 28.6003 80.6775 29.3949C81.037 30.1893 81.393 31.0011 81.7455 31.8304L82.7395 34.1714C83.0495 33.4404 83.3805 32.6601 83.733 31.8304C84.0855 31.0008 84.441 30.1889 84.8 29.3949C85.16 28.6009 85.5055 27.8628 85.8365 27.1804C86.1675 26.4981 86.46 25.9253 86.714 25.4619H89.7085C89.849 26.4319 89.979 27.5179 90.099 28.7199C90.219 29.9219 90.3245 31.1733 90.415 32.4739C90.5065 33.7739 90.591 35.0779 90.668 36.3859C90.745 37.6939 90.8115 38.9241 90.868 40.0764H87.6625C87.6205 38.6564 87.5645 37.1099 87.494 35.4369C87.4235 33.7639 87.318 32.0768 87.1775 30.3754C86.9235 30.9658 86.6415 31.6196 86.3315 32.3369C86.0215 33.0543 85.7145 33.7709 85.411 34.4869C85.108 35.2039 84.8155 35.8893 84.533 36.5429C84.2505 37.1966 84.011 37.7554 83.814 38.2194H81.514C81.3165 37.7554 81.077 37.1966 80.795 36.5429C80.513 35.8893 80.2205 35.2039 79.917 34.4869C79.6135 33.7699 79.3065 33.0533 78.9965 32.3369C78.6865 31.6206 78.4045 30.9668 78.1505 30.3754C78.01 32.0754 77.9045 33.7626 77.834 35.4369C77.7635 37.1113 77.707 38.6578 77.6655 40.0764H74.46C74.516 38.9238 74.5825 37.6936 74.66 36.3859C74.7375 35.0783 74.8215 33.7743 74.913 32.4739C75.004 31.1739 75.1095 29.9226 75.229 28.7199C75.3485 27.5173 75.479 26.4313 75.6195 25.4619H78.764Z" fill="white"/>
            <path d="M94.8545 40.0764V25.4619H104.724V28.2244H98.1445V31.0924H103.986V33.7924H98.1445V37.3144H105.209V40.0769L94.8545 40.0764Z" fill="white"/>
            <path d="M118.495 40.0764C117.553 38.4034 116.533 36.7514 115.437 35.1204C114.359 33.5152 113.191 31.9732 111.937 30.5019V40.0764H108.689V25.4619H111.368C111.832 25.9259 112.345 26.4953 112.907 27.1699C113.47 27.8446 114.042 28.5651 114.626 29.3314C115.209 30.0981 115.789 30.8924 116.366 31.7144C116.942 32.5364 117.483 33.3273 117.989 34.0869V25.4619H121.258V40.0764H118.495Z" fill="white"/>
            <path d="M125.686 25.4619H128.976V40.0764H125.686V25.4619Z" fill="white"/>
            <path d="M143.209 40.0764C143.046 39.5684 142.871 39.0469 142.684 38.5119C142.498 37.9769 142.311 37.4436 142.125 36.9119H136.417C136.233 37.4452 136.048 37.9796 135.862 38.5149C135.677 39.0502 135.504 39.5704 135.344 40.0754H131.928C132.478 38.5011 133 37.0459 133.493 35.7099C133.987 34.3739 134.47 33.1156 134.943 31.9349C135.416 30.7539 135.881 29.6327 136.34 28.5714C136.798 27.5101 137.274 26.4732 137.768 25.4609H140.886C141.366 26.4729 141.839 27.5097 142.306 28.5714C142.772 29.6331 143.242 30.7542 143.715 31.9349C144.188 33.1159 144.671 34.3742 145.165 35.7099C145.658 37.0456 146.181 38.5007 146.733 40.0754L143.209 40.0764ZM139.259 28.7729C139.185 28.9849 139.078 29.2736 138.936 29.6389C138.795 30.0042 138.634 30.4264 138.454 30.9054C138.273 31.3841 138.071 31.9112 137.848 32.4869C137.625 33.0626 137.398 33.6669 137.165 34.2999H141.345C141.121 33.6666 140.904 33.0611 140.695 32.4834C140.485 31.9057 140.287 31.3769 140.1 30.8969C139.911 30.4179 139.745 29.9959 139.603 29.6309C139.46 29.2659 139.345 28.9799 139.256 28.7729H139.259Z" fill="white"/>
        </g>
    </g>
    <defs>
        <clipPath id="clip0_2890_3977">
            <rect width="150" height="42.5" fill="white" transform="translate(0 0.75)"/>
        </clipPath>
    </defs>
</svg>