<svg width="103" height="45" viewBox="0 0 103 45" fill="none" xmlns="http://www.w3.org/2000/svg">
    <path d="M33.5448 44.7324C37.6059 44.7324 40.8982 39.7421 40.8982 33.5862C40.8982 27.4303 37.6059 22.4399 33.5448 22.4399C29.4836 22.4399 26.1914 27.4303 26.1914 33.5862C26.1914 39.7421 29.4836 44.7324 33.5448 44.7324Z" fill="black"/>
    <path d="M75.2962 44.9949C79.3936 44.9949 82.7153 39.9594 82.7153 33.7477C82.7153 27.536 79.3936 22.5005 75.2962 22.5005C71.1988 22.5005 67.8772 27.536 67.8772 33.7477C67.8772 39.9594 71.1988 44.9949 75.2962 44.9949Z" fill="black"/>
    <path d="M0 1.29893H19.7874V10.0816C22.1965 6.6372 24.8934 4.0918 27.8782 2.45547C30.863 0.819141 34.2972 0.000976563 38.1911 0.000976563C43.0092 0.000976563 47.1858 0.904997 50.7312 2.71304C54.2766 4.51603 56.9281 7.11698 58.6957 10.5058C64.7966 3.5009 71.7712 0.000976562 79.6094 0.000976562C86.7254 0.000976562 92.3263 1.91003 96.4171 5.73823C100.503 9.56138 102.548 14.8188 102.548 21.5106V44.9949H82.7608V21.5106C82.7608 18.8238 82.0235 16.7733 80.5589 15.3592C79.0892 13.9451 77.0185 13.2381 74.362 13.2381C69.15 13.2381 64.7562 14.8188 61.1704 17.9854V45H41.3829V21.5106C41.3829 18.8541 40.6304 16.8087 39.1153 15.3794C37.6052 13.9502 35.5144 13.2381 32.8528 13.2381C27.6459 13.2381 23.2924 14.8188 19.7874 17.9854V45H0V1.29893Z" fill="#28F68E"/>
</svg>