<svg width="120" height="120" viewBox="0 0 120 120" fill="none" xmlns="http://www.w3.org/2000/svg">
    <circle cx="60" cy="60" r="59.75" fill="white" stroke="#DFDFDF" stroke-width="0.5"/>
    <path d="M73.4394 42.9723C69.3129 38.7756 66.097 42.2391 67.4234 46.7417C68.5305 49.7075 70.8467 52.0932 72.2822 54.8848C73.4193 57.099 74.1717 57.5615 73.4394 59.8081C71.9838 64.2838 66.1225 71.046 51.7881 86.4619C51.376 86.905 52.4249 85.8011 49.3446 89.0135C49.1372 89.2319 49.0207 89.5235 49.0195 89.8273C49.0183 90.1313 49.1325 90.4238 49.3382 90.6438C51.3396 92.7486 54.5809 96.6951 55.144 97.2057L57.6312 100.067C57.7462 100.172 57.8817 100.251 58.029 100.298C58.1762 100.345 58.3316 100.36 58.4849 100.341C58.6382 100.322 58.7857 100.271 58.9177 100.189C59.0497 100.107 59.1632 99.9983 59.2505 99.8685L61.7295 97.2057C61.7295 97.2057 66.5355 91.4594 68.6188 88.8735C74.6311 81.4209 85.3921 68.5389 83.0387 56.213C81.7587 50.9569 77.2911 46.2421 73.4394 42.9723Z" fill="#F89934"/>
    <path d="M50.2322 57.1952C50.0967 57.3264 50.3523 57.0545 50.2322 57.1952V57.1952Z" fill="#F89934"/>
    <path d="M41.2443 51.5698C41.1624 51.6537 41.336 51.4967 41.2443 51.5698V51.5698Z" fill="#F89934"/>
    <path d="M82.9549 50.6141C81.3046 47.9402 79.0804 45.6796 77.4183 43.978C76.021 42.5479 75.6335 41.8296 73.4383 40.3318C72.0737 39.405 70.5118 38.8331 69.048 38.8331C67.5843 38.8331 65.39 40.9593 65.39 43.3283C65.39 44.827 65.39 44.8269 65.7539 46.3599C66.6391 50.1238 69.2491 53.5123 71.2468 56.8127C71.7399 57.6274 71.728 58.1501 71.5197 58.7044C71.0303 60.0131 70.3116 61.2207 69.5029 62.3524L68.1993 64.1745C66.7436 66.21 65.1566 68.1446 63.4487 69.9654C58.8646 74.8553 50.7682 83.3609 49.6337 84.7947C48.9751 85.6288 48.321 86.4936 47.5469 86.7874C46.9455 87.0163 45.5682 86.5325 44.7622 85.7892C43.5596 84.677 43.3894 83.359 43.4404 81.535C43.4622 80.7722 44.391 78.9278 44.7622 78.3541C47.7079 73.8006 50.7582 71.047 54.4161 66.5519C56.4039 64.1106 59.4369 61.5748 61.632 59.3226C61.8267 59.1233 61.7339 57.5616 60.2674 58.3031C60.2583 58.3077 60.2429 58.3188 60.2338 58.3244C60.2247 58.3299 60.0136 58.4643 60.0136 58.4643C60.0136 58.4643 57.8121 60.2828 56.2337 61.775C55.5469 62.4432 54.8819 63.0725 54.4143 63.5471C50.6281 67.3573 44.15 75.3262 43.1475 76.5227C42.5898 77.1872 42.0376 77.8731 41.3571 78.1326C40.8277 78.3347 39.5786 78.0316 38.8299 77.5051C37.7128 76.7201 37.8884 74.606 38.3169 73.2899C39.0446 71.0424 40.512 68.7948 40.512 68.7948C40.8123 68.2034 41.1624 67.6397 41.5582 67.1098C44.2255 63.5767 47.0947 60.6822 50.1004 57.3401C50.1677 57.265 50.2078 57.2196 50.2333 57.1899C50.3297 57.0973 50.6244 56.8035 51.3986 56.0101L53.5937 53.7625C54.4125 53.0628 53.5028 51.7782 52.5248 52.515C47.828 56.0638 41.5072 63.2329 37.5845 68.7994C36.3737 70.5178 34.0366 70.2898 32.9832 68.3295C32.1863 66.8466 33.0833 64.2515 34.0494 62.8992C38.3132 56.9258 39.3794 55.8396 41.9748 53.0674L42.7026 52.3176C43.4304 51.5687 42.2932 50.527 41.2389 51.5687C37.5809 54.5652 35.162 58.7897 32.9796 61.2699C31.8042 62.6045 30.9955 62.0567 30.2004 60.8157C29.5699 59.8305 28.7767 54.5234 28.8003 53.0674C28.8094 52.5187 28.7921 52.0136 28.8058 51.1081C28.807 51.042 28.8161 50.9763 28.8331 50.9125C28.8203 50.9051 28.8003 51.5687 28.8003 51.5687V51.4278C28.8276 46.9892 29.8401 42.2077 31.9634 38.3317C36.9095 29.3044 44.5402 22.266 56.13 21.722C57.047 21.6293 58.6254 21.5876 59.5324 21.6034C59.5579 21.6034 58.1842 21.6034 58.2097 21.6034H60.1373C60.373 21.6034 59.1458 21.6034 59.3832 21.6034H59.4678C64.1668 21.5678 68.8032 22.7027 72.9735 24.9094C73.2464 25.0539 73.5238 25.2059 73.8249 25.3783C73.8249 25.3783 83.6735 31.1173 87.6172 44.3431C87.8792 45.219 88.7998 47.8225 88.7998 53.0665C88.7998 53.2871 88.7152 54.2463 88.6179 55.0434C88.5477 55.6155 88.4259 56.1799 88.254 56.7293C87.8901 57.8712 87.1378 60.2003 86.5974 61.3069C85.8696 62.8056 85.1346 62.8056 85.1346 62.8056C85.1346 62.8056 84.4022 62.8056 84.3968 62.5396C84.3913 62.2338 84.6861 61.2244 84.9053 60.1438C85.2628 57.7766 85.0645 55.3428 84.2194 53.0998C84.0993 52.7829 83.971 52.4835 83.8318 52.1971C83.5744 51.6697 83.286 51.1609 82.9758 50.6623L82.9549 50.6141Z" fill="#F89934"/>
</svg>